Stretch Black Wide Cy Sc vv(-6.4-0.0)-(110.0-100.0)-0.0-0.0-(0.0-0.0).ufo
<glyph name="aie-cy.sc" format="1">
  <advance width="2022"/>
  <outline>
    <contour>
      <point x="1012" y="1287" type="move" name="top"/>
    </contour>
    <contour>
      <point x="973" y="-144" type="move" name="mark0"/>
    </contour>
    <contour>
      <point x="1012" y="0" type="move" name="bottom"/>
    </contour>
    <contour>
      <point x="848" y="145" type="line"/>
      <point x="688" y="124" type="line"/>
      <point x="688" y="0" type="line"/>
      <point x="1956" y="0" type="line"/>
      <point x="2026" y="332" type="line"/>
      <point x="1808" y="384" type="line"/>
      <point x="1675" y="155" type="line"/>
      <point x="1239" y="130" type="line"/>
      <point x="1239" y="583" type="line"/>
      <point x="1479" y="578" type="line"/>
      <point x="1514" y="426" type="line"/>
      <point x="1665" y="426" type="line"/>
      <point x="1665" y="877" type="line"/>
      <point x="1512" y="877" type="line"/>
      <point x="1477" y="738" type="line"/>
      <point x="1239" y="732" type="line"/>
      <point x="1239" y="1170" type="line"/>
      <point x="1635" y="1147" type="line"/>
      <point x="1712" y="969" type="line"/>
      <point x="1888" y="969" type="line"/>
      <point x="1858" y="1292" type="line"/>
      <point x="216" y="1292" type="line"/>
      <point x="216" y="1158" type="line"/>
      <point x="484" y="1132" type="line"/>
      <point x="-15" y="145" type="line"/>
      <point x="-163" y="124" type="line"/>
      <point x="-163" y="0" type="line"/>
      <point x="443" y="0" type="line"/>
      <point x="443" y="124" type="line"/>
      <point x="288" y="145" type="line"/>
      <point x="382" y="350" type="line"/>
      <point x="848" y="350" type="line"/>
    </contour>
    <contour>
      <point x="848" y="500" type="line"/>
      <point x="445" y="500" type="line"/>
      <point x="626" y="905" type="line"/>
      <point x="729" y="1155" type="line"/>
      <point x="848" y="1155" type="line"/>
    </contour>
  </outline>
</glyph>
<glyph name="be-cy.sc" format="1">
  <advance width="1515"/>
  <outline>
    <contour>
      <point x="737" y="-144" type="move" name="mark0"/>
    </contour>
    <contour>
      <point x="637" y="748" type="curve"/>
      <point x="637" y="1155" type="line"/>
      <point x="1032" y="1135" type="line"/>
      <point x="1098" y="925" type="line"/>
      <point x="1320" y="925" type="line"/>
      <point x="1296" y="1292" type="line"/>
      <point x="71" y="1292" type="line"/>
      <point x="71" y="1158" type="line"/>
      <point x="246" y="1133" type="line"/>
      <point x="246" y="145" type="line"/>
      <point x="71" y="126" type="line"/>
      <point x="71" y="0" type="line"/>
      <point x="454" y="0" type="line" smooth="yes"/>
      <point x="544" y="0"/>
      <point x="854" y="-14"/>
      <point x="904" y="-14" type="curve" smooth="yes"/>
      <point x="1231" y="-14"/>
      <point x="1459" y="133"/>
      <point x="1459" y="391" type="curve" smooth="yes"/>
      <point x="1459" y="640"/>
      <point x="1280" y="754"/>
      <point x="901" y="754" type="curve" smooth="yes"/>
      <point x="860" y="754"/>
      <point x="656" y="750"/>
    </contour>
    <contour>
      <point x="637" y="133" type="curve"/>
      <point x="637" y="620" type="line"/>
      <point x="649" y="620"/>
      <point x="752" y="624"/>
      <point x="787" y="624" type="curve" smooth="yes"/>
      <point x="971" y="624"/>
      <point x="1057" y="553"/>
      <point x="1057" y="373" type="curve" smooth="yes"/>
      <point x="1057" y="241"/>
      <point x="995" y="117"/>
      <point x="768" y="117" type="curve" smooth="yes"/>
      <point x="693" y="117"/>
      <point x="662" y="127"/>
    </contour>
  </outline>
</glyph>
<glyph name="che-cy.sc" format="1">
  <advance width="1592"/>
  <outline>
    <contour>
      <point x="770" y="1287" type="move" name="top"/>
    </contour>
    <contour>
      <point x="800" y="648" type="move" name="center"/>
    </contour>
    <contour>
      <point x="1554" y="0" type="move" name="bottomright"/>
    </contour>
    <contour>
      <point x="977" y="528" type="curve"/>
      <point x="977" y="147" type="line"/>
      <point x="750" y="126" type="line"/>
      <point x="750" y="0" type="line"/>
      <point x="1530" y="0" type="line"/>
      <point x="1530" y="124" type="line"/>
      <point x="1369" y="147" type="line"/>
      <point x="1369" y="1133" type="line"/>
      <point x="1529" y="1158" type="line"/>
      <point x="1529" y="1292" type="line"/>
      <point x="817" y="1292" type="line"/>
      <point x="817" y="1158" type="line"/>
      <point x="977" y="1134" type="line"/>
      <point x="977" y="681" type="line"/>
      <point x="935" y="651"/>
      <point x="849" y="630"/>
      <point x="753" y="630" type="curve" smooth="yes"/>
      <point x="566" y="630"/>
      <point x="537" y="689"/>
      <point x="537" y="913" type="curve" smooth="yes"/>
      <point x="537" y="1134" type="line"/>
      <point x="673" y="1158" type="line"/>
      <point x="673" y="1292" type="line"/>
      <point x="26" y="1292" type="line"/>
      <point x="26" y="1158" type="line"/>
      <point x="143" y="1132" type="line"/>
      <point x="143" y="844" type="line" smooth="yes"/>
      <point x="143" y="568"/>
      <point x="266" y="454"/>
      <point x="611" y="454" type="curve" smooth="yes"/>
      <point x="729" y="454"/>
      <point x="878" y="476"/>
    </contour>
  </outline>
</glyph>
<glyph name="cheabkhasian-cy.sc" format="1">
  <advance width="1799"/>
  <outline>
    <contour>
      <point x="1667" y="46" type="curve"/>
      <point x="1669" y="340" type="line"/>
      <point x="1413" y="352" type="line"/>
      <point x="1376" y="240" type="line"/>
      <point x="1333" y="170"/>
      <point x="1291" y="108"/>
      <point x="1123" y="108" type="curve" smooth="yes"/>
      <point x="913" y="108"/>
      <point x="797" y="300"/>
      <point x="781" y="572" type="curve"/>
      <point x="1717" y="570" type="line"/>
      <point x="1728" y="614"/>
      <point x="1737" y="724"/>
      <point x="1737" y="802" type="curve" smooth="yes"/>
      <point x="1728" y="1164"/>
      <point x="1439" y="1306"/>
      <point x="1124" y="1306" type="curve" smooth="yes"/>
      <point x="768" y="1306"/>
      <point x="442" y="1104"/>
      <point x="394" y="726" type="curve"/>
      <point x="259" y="728"/>
      <point x="272" y="776"/>
      <point x="272" y="816" type="curve" smooth="yes"/>
      <point x="272" y="842"/>
      <point x="313" y="928"/>
      <point x="330" y="946" type="curve"/>
      <point x="133" y="972" type="line"/>
      <point x="109" y="960"/>
      <point x="24" y="892"/>
      <point x="24" y="772" type="curve" smooth="yes"/>
      <point x="24" y="644"/>
      <point x="199" y="580"/>
      <point x="390" y="580" type="curve"/>
      <point x="409" y="180"/>
      <point x="700" y="-20"/>
      <point x="1091" y="-20" type="curve" smooth="yes"/>
      <point x="1388" y="-20"/>
      <point x="1551" y="44"/>
    </contour>
    <contour>
      <point x="1352" y="726" type="curve"/>
      <point x="776" y="726" type="line"/>
      <point x="785" y="1018"/>
      <point x="892" y="1150"/>
      <point x="1078" y="1150" type="curve" smooth="yes"/>
      <point x="1318" y="1150"/>
      <point x="1347" y="928"/>
      <point x="1351" y="780" type="curve" smooth="yes"/>
      <point x="1354" y="764"/>
      <point x="1352" y="744"/>
    </contour>
  </outline>
</glyph>
<glyph name="chedescender-cy.sc" format="1">
  <advance width="1633"/>
  <outline>
    <contour>
      <point x="1582" y="147" type="curve"/>
      <point x="1370" y="147" type="line"/>
      <point x="1370" y="1133" type="line"/>
      <point x="1530" y="1158" type="line"/>
      <point x="1530" y="1292" type="line"/>
      <point x="816" y="1292" type="line"/>
      <point x="816" y="1158" type="line"/>
      <point x="978" y="1134" type="line"/>
      <point x="978" y="681" type="line"/>
      <point x="935" y="651"/>
      <point x="849" y="630"/>
      <point x="754" y="630" type="curve" smooth="yes"/>
      <point x="566" y="630"/>
      <point x="538" y="689"/>
      <point x="538" y="913" type="curve" smooth="yes"/>
      <point x="538" y="1134" type="line"/>
      <point x="674" y="1158" type="line"/>
      <point x="674" y="1292" type="line"/>
      <point x="27" y="1292" type="line"/>
      <point x="27" y="1158" type="line"/>
      <point x="144" y="1132" type="line"/>
      <point x="144" y="844" type="line" smooth="yes"/>
      <point x="144" y="568"/>
      <point x="266" y="454"/>
      <point x="612" y="454" type="curve" smooth="yes"/>
      <point x="729" y="454"/>
      <point x="879" y="476"/>
      <point x="978" y="528" type="curve"/>
      <point x="978" y="147" type="line"/>
      <point x="751" y="126" type="line"/>
      <point x="751" y="0" type="line"/>
      <point x="1256" y="0" type="line"/>
      <point x="1282" y="-52"/>
      <point x="1322" y="-307"/>
      <point x="1325" y="-366" type="curve"/>
      <point x="1529" y="-366" type="line"/>
      <point x="1541" y="-329"/>
      <point x="1580" y="12"/>
    </contour>
  </outline>
</glyph>
<glyph name="chedieresis-cy.sc" format="1">
  <advance width="1592"/>
  <outline>
    <contour>
      <point x="1034" y="1462" type="curve"/>
      <point x="1184" y="1462"/>
      <point x="1229" y="1544"/>
      <point x="1229" y="1649" type="curve" smooth="yes"/>
      <point x="1229" y="1732"/>
      <point x="1180" y="1807"/>
      <point x="1056" y="1807" type="curve" smooth="yes"/>
      <point x="923" y="1807"/>
      <point x="866" y="1724"/>
      <point x="866" y="1620" type="curve" smooth="yes"/>
      <point x="866" y="1544"/>
      <point x="920" y="1462"/>
    </contour>
    <contour>
      <point x="483" y="1462" type="curve" smooth="yes"/>
      <point x="632" y="1462"/>
      <point x="679" y="1544"/>
      <point x="679" y="1649" type="curve" smooth="yes"/>
      <point x="679" y="1732"/>
      <point x="630" y="1807"/>
      <point x="504" y="1807" type="curve"/>
      <point x="371" y="1807"/>
      <point x="315" y="1724"/>
      <point x="315" y="1620" type="curve" smooth="yes"/>
      <point x="315" y="1535"/>
      <point x="371" y="1462"/>
    </contour>
    <contour>
      <point x="977" y="528" type="curve"/>
      <point x="977" y="147" type="line"/>
      <point x="750" y="126" type="line"/>
      <point x="750" y="0" type="line"/>
      <point x="1530" y="0" type="line"/>
      <point x="1530" y="124" type="line"/>
      <point x="1369" y="147" type="line"/>
      <point x="1369" y="1133" type="line"/>
      <point x="1529" y="1158" type="line"/>
      <point x="1529" y="1292" type="line"/>
      <point x="817" y="1292" type="line"/>
      <point x="817" y="1158" type="line"/>
      <point x="977" y="1134" type="line"/>
      <point x="977" y="681" type="line"/>
      <point x="935" y="651"/>
      <point x="849" y="630"/>
      <point x="753" y="630" type="curve" smooth="yes"/>
      <point x="566" y="630"/>
      <point x="537" y="689"/>
      <point x="537" y="913" type="curve" smooth="yes"/>
      <point x="537" y="1134" type="line"/>
      <point x="673" y="1158" type="line"/>
      <point x="673" y="1292" type="line"/>
      <point x="26" y="1292" type="line"/>
      <point x="26" y="1158" type="line"/>
      <point x="143" y="1132" type="line"/>
      <point x="143" y="844" type="line" smooth="yes"/>
      <point x="143" y="568"/>
      <point x="266" y="454"/>
      <point x="611" y="454" type="curve" smooth="yes"/>
      <point x="729" y="454"/>
      <point x="878" y="476"/>
    </contour>
  </outline>
</glyph>
<glyph name="chekhakassian-cy.sc" format="1">
  <advance width="1598"/>
  <outline>
    <contour>
      <point x="734" y="-144" type="move" name="mark0"/>
    </contour>
    <contour>
      <point x="1049" y="0" type="curve"/>
      <point x="1531" y="0" type="line"/>
      <point x="1531" y="124" type="line"/>
      <point x="1370" y="147" type="line"/>
      <point x="1370" y="1133" type="line"/>
      <point x="1530" y="1158" type="line"/>
      <point x="1530" y="1292" type="line"/>
      <point x="816" y="1292" type="line"/>
      <point x="816" y="1158" type="line"/>
      <point x="978" y="1134" type="line"/>
      <point x="978" y="681" type="line"/>
      <point x="935" y="651"/>
      <point x="849" y="630"/>
      <point x="754" y="630" type="curve" smooth="yes"/>
      <point x="566" y="630"/>
      <point x="538" y="689"/>
      <point x="538" y="913" type="curve" smooth="yes"/>
      <point x="538" y="1134" type="line"/>
      <point x="674" y="1158" type="line"/>
      <point x="674" y="1292" type="line"/>
      <point x="27" y="1292" type="line"/>
      <point x="27" y="1158" type="line"/>
      <point x="144" y="1132" type="line"/>
      <point x="144" y="844" type="line" smooth="yes"/>
      <point x="144" y="568"/>
      <point x="266" y="454"/>
      <point x="612" y="454" type="curve" smooth="yes"/>
      <point x="729" y="454"/>
      <point x="879" y="476"/>
      <point x="978" y="528" type="curve"/>
      <point x="978" y="156" type="line"/>
      <point x="746" y="156" type="line"/>
      <point x="729" y="-1"/>
      <point x="715" y="-289"/>
      <point x="715" y="-366" type="curve"/>
      <point x="928" y="-366" type="line"/>
      <point x="939" y="-321"/>
      <point x="1015" y="-68"/>
    </contour>
  </outline>
</glyph>
<glyph name="cheverticalstroke-cy.sc" format="1">
  <advance width="1683"/>
  <outline>
    <contour>
      <point x="820" y="-144" type="move" name="mark0"/>
    </contour>
    <contour>
      <point x="1065" y="529" type="curve"/>
      <point x="1065" y="156" type="line"/>
      <point x="824" y="132" type="line"/>
      <point x="824" y="0" type="line"/>
      <point x="1620" y="0" type="line"/>
      <point x="1620" y="124" type="line"/>
      <point x="1457" y="147" type="line"/>
      <point x="1457" y="1133" type="line"/>
      <point x="1620" y="1158" type="line"/>
      <point x="1620" y="1292" type="line"/>
      <point x="887" y="1292" type="line"/>
      <point x="887" y="1165" type="line"/>
      <point x="1065" y="1136" type="line"/>
      <point x="1065" y="682" type="line"/>
      <point x="1036" y="665"/>
      <point x="966" y="649"/>
      <point x="879" y="638" type="curve"/>
      <point x="879" y="891" type="line"/>
      <point x="720" y="891" type="line"/>
      <point x="720" y="630" type="line"/>
      <point x="548" y="630"/>
      <point x="537" y="694"/>
      <point x="537" y="913" type="curve" smooth="yes"/>
      <point x="537" y="1135" type="line"/>
      <point x="703" y="1163" type="line"/>
      <point x="703" y="1292" type="line"/>
      <point x="31" y="1292" type="line"/>
      <point x="31" y="1163" type="line"/>
      <point x="146" y="1138" type="line"/>
      <point x="146" y="844" type="line" smooth="yes"/>
      <point x="146" y="566"/>
      <point x="291" y="454"/>
      <point x="651" y="454" type="curve" smooth="yes"/>
      <point x="672" y="454"/>
      <point x="695" y="454"/>
      <point x="720" y="456" type="curve"/>
      <point x="720" y="286" type="line"/>
      <point x="879" y="286" type="line"/>
      <point x="879" y="477" type="line"/>
      <point x="949" y="490"/>
      <point x="1016" y="508"/>
    </contour>
  </outline>
</glyph>
<glyph name="de-cy.sc" format="1">
  <advance width="1663"/>
  <outline>
    <contour>
      <point x="1584" y="147" type="curve"/>
      <point x="1378" y="147" type="line"/>
      <point x="1378" y="1133" type="line"/>
      <point x="1582" y="1158" type="line"/>
      <point x="1582" y="1292" type="line"/>
      <point x="233" y="1292" type="line"/>
      <point x="233" y="1158" type="line"/>
      <point x="453" y="1133" type="line"/>
      <point x="453" y="1078" type="line" smooth="yes"/>
      <point x="453" y="537"/>
      <point x="289" y="254"/>
      <point x="207" y="147" type="curve"/>
      <point x="55" y="147" type="line"/>
      <point x="44" y="-17"/>
      <point x="42" y="-296"/>
      <point x="38" y="-370" type="curve"/>
      <point x="252" y="-370" type="line"/>
      <point x="264" y="-282"/>
      <point x="329" y="-37"/>
      <point x="366" y="0" type="curve"/>
      <point x="1256" y="0" type="line"/>
      <point x="1283" y="-35"/>
      <point x="1339" y="-303"/>
      <point x="1343" y="-366" type="curve"/>
      <point x="1548" y="-366" type="line"/>
      <point x="1557" y="-334"/>
      <point x="1584" y="11"/>
    </contour>
    <contour>
      <point x="634" y="1068" type="curve"/>
      <point x="634" y="1152" type="line"/>
      <point x="988" y="1152" type="line"/>
      <point x="990" y="147" type="line"/>
      <point x="450" y="147" type="line"/>
      <point x="517" y="269"/>
      <point x="634" y="565"/>
    </contour>
  </outline>
</glyph>
<glyph name="dje-cy.sc" format="1">
  <advance width="1910"/>
  <outline>
    <contour>
      <point x="715" y="-144" type="move" name="mark0"/>
    </contour>
    <contour>
      <point x="980" y="681" type="curve"/>
      <point x="980" y="1156" type="line"/>
      <point x="1303" y="1134" type="line"/>
      <point x="1372" y="871" type="line"/>
      <point x="1582" y="871" type="line"/>
      <point x="1552" y="1292" type="line"/>
      <point x="81" y="1292" type="line"/>
      <point x="50" y="871" type="line"/>
      <point x="257" y="871" type="line"/>
      <point x="324" y="1134" type="line"/>
      <point x="586" y="1156" type="line"/>
      <point x="586" y="156" type="line"/>
      <point x="286" y="132" type="line"/>
      <point x="286" y="0" type="line"/>
      <point x="1257" y="0" type="line"/>
      <point x="1257" y="132" type="line"/>
      <point x="980" y="156" type="line"/>
      <point x="980" y="531" type="line"/>
      <point x="1031" y="563"/>
      <point x="1119" y="591"/>
      <point x="1228" y="591" type="curve" smooth="yes"/>
      <point x="1403" y="591"/>
      <point x="1468" y="494"/>
      <point x="1468" y="245" type="curve" smooth="yes"/>
      <point x="1468" y="-51"/>
      <point x="1383" y="-208"/>
      <point x="1213" y="-208" type="curve" smooth="yes"/>
      <point x="1106" y="-208"/>
      <point x="1074" y="-195"/>
      <point x="1051" y="-188" type="curve"/>
      <point x="1068" y="-329" type="line"/>
      <point x="1100" y="-340"/>
      <point x="1171" y="-361"/>
      <point x="1274" y="-361" type="curve" smooth="yes"/>
      <point x="1625" y="-361"/>
      <point x="1870" y="-116"/>
      <point x="1870" y="294" type="curve" smooth="yes"/>
      <point x="1870" y="644"/>
      <point x="1660" y="751"/>
      <point x="1319" y="751" type="curve" smooth="yes"/>
      <point x="1207" y="751"/>
      <point x="1036" y="707"/>
    </contour>
  </outline>
</glyph>
<glyph name="dzeabkhasian-cy.sc" format="1">
  <advance width="1390"/>
  <outline>
    <contour>
      <point x="829" y="763" type="curve"/>
      <point x="1277" y="1151" type="line"/>
      <point x="1277" y="1292" type="line"/>
      <point x="124" y="1292" type="line"/>
      <point x="149" y="917" type="line"/>
      <point x="379" y="917" type="line"/>
      <point x="430" y="1121" type="line"/>
      <point x="878" y="1128" type="line"/>
      <point x="776" y="997"/>
      <point x="608" y="848"/>
      <point x="503" y="716" type="curve"/>
      <point x="554" y="626" type="line"/>
      <point x="586" y="630"/>
      <point x="617" y="630"/>
      <point x="642" y="630" type="curve"/>
      <point x="880" y="627"/>
      <point x="905" y="504"/>
      <point x="905" y="379" type="curve" smooth="yes"/>
      <point x="905" y="208"/>
      <point x="780" y="107"/>
      <point x="611" y="107" type="curve" smooth="yes"/>
      <point x="505" y="107"/>
      <point x="452" y="140"/>
      <point x="443" y="154" type="curve"/>
      <point x="367" y="401" type="line"/>
      <point x="151" y="401" type="line"/>
      <point x="101" y="68" type="line"/>
      <point x="173" y="38"/>
      <point x="404" y="-19"/>
      <point x="624" y="-19" type="curve" smooth="yes"/>
      <point x="1178" y="-19"/>
      <point x="1336" y="196"/>
      <point x="1336" y="435" type="curve" smooth="yes"/>
      <point x="1336" y="619"/>
      <point x="1209" y="766"/>
      <point x="906" y="766" type="curve" smooth="yes"/>
      <point x="882" y="766"/>
      <point x="856" y="764"/>
    </contour>
  </outline>
</glyph>
<glyph name="dzhe-cy.sc" format="1">
  <advance width="1760"/>
  <outline>
    <contour>
      <point x="1054" y="0" type="curve"/>
      <point x="1692" y="0" type="line"/>
      <point x="1692" y="126" type="line"/>
      <point x="1529" y="145" type="line"/>
      <point x="1529" y="1133" type="line"/>
      <point x="1686" y="1158" type="line"/>
      <point x="1686" y="1292" type="line"/>
      <point x="962" y="1292" type="line"/>
      <point x="962" y="1158" type="line"/>
      <point x="1140" y="1133" type="line"/>
      <point x="1140" y="132" type="line"/>
      <point x="622" y="132" type="line"/>
      <point x="622" y="1133" type="line"/>
      <point x="800" y="1158" type="line"/>
      <point x="800" y="1292" type="line"/>
      <point x="74" y="1292" type="line"/>
      <point x="74" y="1158" type="line"/>
      <point x="231" y="1133" type="line"/>
      <point x="231" y="147" type="line"/>
      <point x="70" y="126" type="line"/>
      <point x="70" y="0" type="line"/>
      <point x="706" y="0" type="line"/>
      <point x="721" y="-22"/>
      <point x="770" y="-253"/>
      <point x="770" y="-370" type="curve"/>
      <point x="995" y="-370" type="line"/>
      <point x="997" y="-248"/>
      <point x="1033" y="-26"/>
    </contour>
  </outline>
</glyph>
<glyph name="e-cy.sc" format="1">
  <advance width="1450"/>
  <outline>
    <contour>
      <point x="800" y="0" type="move" name="mark0"/>
    </contour>
    <contour>
      <point x="1355" y="46" type="curve"/>
      <point x="1360" y="364" type="line"/>
      <point x="1142" y="366" type="line"/>
      <point x="1053" y="162" type="line"/>
      <point x="1026" y="141"/>
      <point x="976" y="110"/>
      <point x="849" y="110" type="curve" smooth="yes"/>
      <point x="636" y="110"/>
      <point x="516" y="316"/>
      <point x="493" y="573" type="curve"/>
      <point x="1062" y="560" type="line"/>
      <point x="1062" y="747" type="line"/>
      <point x="490" y="733" type="line"/>
      <point x="507" y="1050"/>
      <point x="662" y="1181"/>
      <point x="872" y="1181" type="curve" smooth="yes"/>
      <point x="971" y="1181"/>
      <point x="993" y="1156"/>
      <point x="1020" y="1131" type="curve"/>
      <point x="1079" y="885" type="line"/>
      <point x="1338" y="885" type="line"/>
      <point x="1363" y="1253" type="line"/>
      <point x="1255" y="1262"/>
      <point x="1104" y="1306"/>
      <point x="895" y="1306" type="curve" smooth="yes"/>
      <point x="381" y="1306"/>
      <point x="55" y="1059"/>
      <point x="55" y="635" type="curve" smooth="yes"/>
      <point x="55" y="250"/>
      <point x="315" y="-20"/>
      <point x="813" y="-20" type="curve" smooth="yes"/>
      <point x="1103" y="-20"/>
      <point x="1232" y="41"/>
    </contour>
  </outline>
</glyph>
<glyph name="edieresis-cy.sc" format="1">
  <advance width="1463"/>
  <outline>
    <contour>
      <point x="984" y="1461" type="curve"/>
      <point x="1134" y="1461"/>
      <point x="1179" y="1543"/>
      <point x="1179" y="1648" type="curve" smooth="yes"/>
      <point x="1179" y="1731"/>
      <point x="1130" y="1806"/>
      <point x="1006" y="1806" type="curve" smooth="yes"/>
      <point x="873" y="1806"/>
      <point x="816" y="1723"/>
      <point x="816" y="1619" type="curve" smooth="yes"/>
      <point x="816" y="1543"/>
      <point x="870" y="1461"/>
    </contour>
    <contour>
      <point x="433" y="1461" type="curve" smooth="yes"/>
      <point x="582" y="1461"/>
      <point x="629" y="1543"/>
      <point x="629" y="1648" type="curve" smooth="yes"/>
      <point x="629" y="1731"/>
      <point x="580" y="1806"/>
      <point x="454" y="1806" type="curve"/>
      <point x="321" y="1806"/>
      <point x="265" y="1723"/>
      <point x="265" y="1619" type="curve" smooth="yes"/>
      <point x="265" y="1534"/>
      <point x="321" y="1461"/>
    </contour>
    <contour>
      <point x="99" y="1240" type="curve"/>
      <point x="113" y="916" type="line"/>
      <point x="340" y="920" type="line"/>
      <point x="414" y="1118" type="line"/>
      <point x="441" y="1142"/>
      <point x="500" y="1174"/>
      <point x="624" y="1174" type="curve" smooth="yes"/>
      <point x="827" y="1174"/>
      <point x="939" y="992"/>
      <point x="967" y="744" type="curve"/>
      <point x="390" y="756" type="line"/>
      <point x="390" y="570" type="line"/>
      <point x="974" y="580" type="line"/>
      <point x="967" y="256"/>
      <point x="831" y="108"/>
      <point x="611" y="108" type="curve" smooth="yes"/>
      <point x="504" y="108"/>
      <point x="465" y="138"/>
      <point x="441" y="164" type="curve"/>
      <point x="367" y="394" type="line"/>
      <point x="111" y="386" type="line"/>
      <point x="112" y="38" type="line"/>
      <point x="229" y="36"/>
      <point x="358" y="-20"/>
      <point x="587" y="-20" type="curve" smooth="yes"/>
      <point x="1101" y="-20"/>
      <point x="1408" y="226"/>
      <point x="1408" y="652" type="curve" smooth="yes"/>
      <point x="1408" y="1038"/>
      <point x="1155" y="1306"/>
      <point x="659" y="1306" type="curve" smooth="yes"/>
      <point x="362" y="1306"/>
      <point x="222" y="1246"/>
    </contour>
  </outline>
</glyph>
<glyph name="ef-cy.sc" format="1">
  <advance width="1897"/>
  <outline>
    <contour>
      <point x="953" y="-144" type="move" name="mark0"/>
    </contour>
    <contour>
      <point x="1137" y="1075" type="curve"/>
      <point x="1137" y="1176" type="line"/>
      <point x="1307" y="1203" type="line"/>
      <point x="1307" y="1331" type="line"/>
      <point x="583" y="1331" type="line"/>
      <point x="583" y="1203" type="line"/>
      <point x="759" y="1176" type="line"/>
      <point x="759" y="1074" type="line"/>
      <point x="223" y="1067"/>
      <point x="37" y="899"/>
      <point x="37" y="655" type="curve" smooth="yes"/>
      <point x="37" y="425"/>
      <point x="146" y="222"/>
      <point x="759" y="229" type="curve"/>
      <point x="759" y="114" type="line"/>
      <point x="584" y="95" type="line"/>
      <point x="584" y="-36" type="line"/>
      <point x="1311" y="-36" type="line"/>
      <point x="1311" y="96" type="line"/>
      <point x="1137" y="110" type="line"/>
      <point x="1137" y="228" type="line"/>
      <point x="1618" y="224"/>
      <point x="1860" y="394"/>
      <point x="1860" y="646" type="curve" smooth="yes"/>
      <point x="1860" y="884"/>
      <point x="1755" y="1078"/>
    </contour>
    <contour>
      <point x="759" y="970" type="curve"/>
      <point x="759" y="334" type="line"/>
      <point x="494" y="362"/>
      <point x="443" y="510"/>
      <point x="443" y="663" type="curve" smooth="yes"/>
      <point x="443" y="840"/>
      <point x="486" y="957"/>
    </contour>
    <contour>
      <point x="1137" y="328" type="curve"/>
      <point x="1137" y="966" type="line"/>
      <point x="1408" y="936"/>
      <point x="1453" y="792"/>
      <point x="1453" y="644" type="curve" smooth="yes"/>
      <point x="1453" y="464"/>
      <point x="1408" y="343"/>
    </contour>
  </outline>
</glyph>
<glyph name="el-cy.sc" format="1">
  <advance width="1677"/>
  <outline>
    <contour>
      <point x="648" y="-144" type="move" name="mark0"/>
    </contour>
    <contour>
      <point x="652" y="1019" type="curve" smooth="yes"/>
      <point x="652" y="1131" type="line"/>
      <point x="1023" y="1131" type="line"/>
      <point x="1023" y="147" type="line"/>
      <point x="802" y="126" type="line"/>
      <point x="802" y="0" type="line"/>
      <point x="1613" y="0" type="line"/>
      <point x="1613" y="126" type="line"/>
      <point x="1411" y="145" type="line"/>
      <point x="1411" y="1133" type="line"/>
      <point x="1604" y="1158" type="line"/>
      <point x="1604" y="1292" type="line"/>
      <point x="209" y="1292" type="line"/>
      <point x="209" y="1158" type="line"/>
      <point x="475" y="1133" type="line"/>
      <point x="475" y="1072" type="line" smooth="yes"/>
      <point x="475" y="594"/>
      <point x="424" y="368"/>
      <point x="352" y="246" type="curve"/>
      <point x="316" y="183"/>
      <point x="282" y="170"/>
      <point x="222" y="170" type="curve" smooth="yes"/>
      <point x="149" y="170"/>
      <point x="109" y="172"/>
      <point x="56" y="176" type="curve"/>
      <point x="81" y="0" type="line"/>
      <point x="126" y="-8"/>
      <point x="184" y="-13"/>
      <point x="256" y="-13" type="curve" smooth="yes"/>
      <point x="368" y="-13"/>
      <point x="451" y="34"/>
      <point x="510" y="127" type="curve" smooth="yes"/>
      <point x="611" y="293"/>
      <point x="652" y="664"/>
    </contour>
  </outline>
</glyph>
<glyph name="elhook-cy.sc" format="1">
  <advance width="1633"/>
  <outline>
    <contour>
      <point x="1411" y="478" type="curve" smooth="yes"/>
      <point x="1411" y="1133" type="line"/>
      <point x="1604" y="1158" type="line"/>
      <point x="1604" y="1292" type="line"/>
      <point x="209" y="1292" type="line"/>
      <point x="209" y="1158" type="line"/>
      <point x="475" y="1133" type="line"/>
      <point x="475" y="1072" type="line" smooth="yes"/>
      <point x="475" y="594"/>
      <point x="424" y="368"/>
      <point x="352" y="246" type="curve"/>
      <point x="316" y="183"/>
      <point x="282" y="170"/>
      <point x="222" y="170" type="curve" smooth="yes"/>
      <point x="149" y="170"/>
      <point x="109" y="172"/>
      <point x="56" y="176" type="curve"/>
      <point x="81" y="0" type="line"/>
      <point x="126" y="-8"/>
      <point x="184" y="-13"/>
      <point x="256" y="-13" type="curve" smooth="yes"/>
      <point x="368" y="-13"/>
      <point x="451" y="34"/>
      <point x="510" y="127" type="curve" smooth="yes"/>
      <point x="611" y="293"/>
      <point x="652" y="664"/>
      <point x="652" y="1019" type="curve" smooth="yes"/>
      <point x="652" y="1131" type="line"/>
      <point x="1022" y="1131" type="line"/>
      <point x="1021" y="300" type="line" smooth="yes"/>
      <point x="1020" y="135"/>
      <point x="1004" y="58"/>
      <point x="977" y="-10" type="curve" smooth="yes"/>
      <point x="920" y="-140"/>
      <point x="815" y="-207"/>
      <point x="721" y="-235" type="curve"/>
      <point x="809" y="-347" type="line"/>
      <point x="1130" y="-305"/>
      <point x="1316" y="-155"/>
      <point x="1379" y="22" type="curve"/>
      <point x="1405" y="97"/>
      <point x="1411" y="286"/>
    </contour>
  </outline>
</glyph>
<glyph name="eltail-cy.sc" format="1">
  <advance width="1690"/>
  <outline>
    <contour>
      <point x="670" y="-144" type="move" name="mark0"/>
    </contour>
    <contour>
      <point x="1630" y="0" type="curve"/>
      <point x="1630" y="143" type="line"/>
      <point x="1411" y="143" type="line"/>
      <point x="1411" y="1133" type="line"/>
      <point x="1604" y="1158" type="line"/>
      <point x="1604" y="1292" type="line"/>
      <point x="209" y="1292" type="line"/>
      <point x="209" y="1158" type="line"/>
      <point x="475" y="1133" type="line"/>
      <point x="475" y="1072" type="line" smooth="yes"/>
      <point x="475" y="589"/>
      <point x="424" y="370"/>
      <point x="352" y="245" type="curve"/>
      <point x="319" y="185"/>
      <point x="284" y="167"/>
      <point x="222" y="167" type="curve" smooth="yes"/>
      <point x="146" y="167"/>
      <point x="108" y="171"/>
      <point x="56" y="173" type="curve"/>
      <point x="81" y="0" type="line"/>
      <point x="126" y="-8"/>
      <point x="184" y="-13"/>
      <point x="256" y="-13" type="curve" smooth="yes"/>
      <point x="366" y="-13"/>
      <point x="444" y="34"/>
      <point x="501" y="127" type="curve" smooth="yes"/>
      <point x="608" y="299"/>
      <point x="652" y="677"/>
      <point x="652" y="1019" type="curve" smooth="yes"/>
      <point x="652" y="1131" type="line"/>
      <point x="1023" y="1131" type="line"/>
      <point x="1026" y="147" type="line"/>
      <point x="802" y="126" type="line"/>
      <point x="802" y="0" type="line"/>
      <point x="1332" y="0" type="line"/>
      <point x="1313" y="-61"/>
      <point x="1244" y="-260"/>
      <point x="1194" y="-370" type="curve"/>
      <point x="1400" y="-370" type="line"/>
      <point x="1435" y="-325"/>
      <point x="1568" y="-102"/>
    </contour>
  </outline>
</glyph>
<glyph name="enhook-cy.sc" format="1">
  <advance width="1752"/>
  <outline>
    <contour>
      <point x="856" y="-144" type="move" name="mark0"/>
    </contour>
    <contour>
      <point x="1555" y="481" type="curve" smooth="yes"/>
      <point x="1555" y="1133" type="line"/>
      <point x="1709" y="1158" type="line"/>
      <point x="1709" y="1292" type="line"/>
      <point x="1005" y="1292" type="line"/>
      <point x="1005" y="1158" type="line"/>
      <point x="1164" y="1133" type="line"/>
      <point x="1164" y="739" type="line"/>
      <point x="623" y="739" type="line"/>
      <point x="623" y="1134" type="line"/>
      <point x="793" y="1158" type="line"/>
      <point x="793" y="1292" type="line"/>
      <point x="83" y="1292" type="line"/>
      <point x="83" y="1158" type="line"/>
      <point x="230" y="1134" type="line"/>
      <point x="230" y="145" type="line"/>
      <point x="80" y="126" type="line"/>
      <point x="80" y="0" type="line"/>
      <point x="794" y="0" type="line"/>
      <point x="794" y="126" type="line"/>
      <point x="623" y="145" type="line"/>
      <point x="623" y="574" type="line"/>
      <point x="1163" y="574" type="line"/>
      <point x="1163" y="304" type="line" smooth="yes"/>
      <point x="1163" y="127"/>
      <point x="1150" y="29"/>
      <point x="1125" y="-34" type="curve"/>
      <point x="1067" y="-163"/>
      <point x="963" y="-224"/>
      <point x="854" y="-259" type="curve"/>
      <point x="940" y="-371" type="line"/>
      <point x="1282" y="-312"/>
      <point x="1457" y="-155"/>
      <point x="1520" y="-3" type="curve"/>
      <point x="1547" y="69"/>
      <point x="1555" y="190"/>
    </contour>
  </outline>
</glyph>
<glyph name="enlefthook-cy.sc" format="1">
  <advance width="1773"/>
  <outline>
    <contour>
      <point x="648" y="478" type="curve" smooth="yes"/>
      <point x="648" y="574" type="line"/>
      <point x="1172" y="574" type="line"/>
      <point x="1172" y="146" type="line"/>
      <point x="1013" y="126" type="line"/>
      <point x="1013" y="0" type="line"/>
      <point x="1710" y="0" type="line"/>
      <point x="1710" y="126" type="line"/>
      <point x="1560" y="144" type="line"/>
      <point x="1560" y="1134" type="line"/>
      <point x="1709" y="1158" type="line"/>
      <point x="1709" y="1292" type="line"/>
      <point x="1015" y="1292" type="line"/>
      <point x="1015" y="1158" type="line"/>
      <point x="1172" y="1132" type="line"/>
      <point x="1172" y="740" type="line"/>
      <point x="648" y="740" type="line"/>
      <point x="648" y="1134" type="line"/>
      <point x="819" y="1158" type="line"/>
      <point x="819" y="1292" type="line"/>
      <point x="111" y="1292" type="line"/>
      <point x="111" y="1158" type="line"/>
      <point x="258" y="1134" type="line"/>
      <point x="258" y="300" type="line" smooth="yes"/>
      <point x="258" y="147"/>
      <point x="243" y="55"/>
      <point x="217" y="-9" type="curve" smooth="yes"/>
      <point x="160" y="-138"/>
      <point x="53" y="-207"/>
      <point x="-40" y="-235" type="curve"/>
      <point x="47" y="-347" type="line"/>
      <point x="364" y="-304"/>
      <point x="550" y="-160"/>
      <point x="617" y="20" type="curve"/>
      <point x="646" y="102"/>
      <point x="648" y="286"/>
    </contour>
  </outline>
</glyph>
<glyph name="ereversed-cy.sc" format="1">
  <advance width="1463"/>
  <outline>
    <contour>
      <point x="720" y="1286" type="move" name="top"/>
    </contour>
    <contour>
      <point x="99" y="1240" type="curve"/>
      <point x="113" y="916" type="line"/>
      <point x="340" y="920" type="line"/>
      <point x="414" y="1118" type="line"/>
      <point x="441" y="1142"/>
      <point x="500" y="1174"/>
      <point x="624" y="1174" type="curve" smooth="yes"/>
      <point x="827" y="1174"/>
      <point x="939" y="992"/>
      <point x="967" y="744" type="curve"/>
      <point x="390" y="756" type="line"/>
      <point x="390" y="570" type="line"/>
      <point x="974" y="580" type="line"/>
      <point x="967" y="256"/>
      <point x="831" y="108"/>
      <point x="611" y="108" type="curve" smooth="yes"/>
      <point x="504" y="108"/>
      <point x="465" y="138"/>
      <point x="441" y="164" type="curve"/>
      <point x="367" y="394" type="line"/>
      <point x="111" y="386" type="line"/>
      <point x="112" y="38" type="line"/>
      <point x="229" y="36"/>
      <point x="358" y="-20"/>
      <point x="587" y="-20" type="curve" smooth="yes"/>
      <point x="1101" y="-20"/>
      <point x="1408" y="226"/>
      <point x="1408" y="652" type="curve" smooth="yes"/>
      <point x="1408" y="1038"/>
      <point x="1155" y="1306"/>
      <point x="659" y="1306" type="curve" smooth="yes"/>
      <point x="362" y="1306"/>
      <point x="222" y="1246"/>
    </contour>
  </outline>
</glyph>
<glyph name="ge-cy.sc" format="1">
  <advance width="1304"/>
  <outline>
    <contour>
      <point x="745" y="1287" type="move" name="top"/>
    </contour>
    <contour>
      <point x="652" y="648" type="move" name="center"/>
    </contour>
    <contour>
      <point x="306" y="0" type="move" name="bottomright"/>
    </contour>
    <contour>
      <point x="64" y="1292" type="line"/>
      <point x="64" y="1159" type="line"/>
      <point x="289" y="1132" type="line"/>
      <point x="289" y="147" type="line"/>
      <point x="60" y="127" type="line"/>
      <point x="60" y="0" type="line"/>
      <point x="1006" y="0" type="line"/>
      <point x="1006" y="127" type="line"/>
      <point x="679" y="147" type="line"/>
      <point x="679" y="1155" type="line"/>
      <point x="995" y="1132" type="line"/>
      <point x="1075" y="761" type="line"/>
      <point x="1296" y="761" type="line"/>
      <point x="1262" y="1292" type="line"/>
    </contour>
  </outline>
</glyph>
<glyph name="gedescender-cy.sc" format="1">
  <advance width="1299"/>
  <outline>
    <contour>
      <point x="707" y="-144" type="move" name="mark0"/>
    </contour>
    <contour>
      <point x="1063" y="147" type="curve"/>
      <point x="679" y="147" type="line"/>
      <point x="679" y="1155" type="line"/>
      <point x="995" y="1132" type="line"/>
      <point x="1082" y="761" type="line"/>
      <point x="1296" y="761" type="line"/>
      <point x="1262" y="1292" type="line"/>
      <point x="64" y="1292" type="line"/>
      <point x="64" y="1159" type="line"/>
      <point x="289" y="1132" type="line"/>
      <point x="289" y="147" type="line"/>
      <point x="60" y="127" type="line"/>
      <point x="60" y="0" type="line"/>
      <point x="735" y="0" type="line"/>
      <point x="764" y="-54"/>
      <point x="804" y="-299"/>
      <point x="804" y="-366" type="curve"/>
      <point x="1009" y="-366" type="line"/>
      <point x="1019" y="-333"/>
      <point x="1063" y="13"/>
    </contour>
  </outline>
</glyph>
<glyph name="gestrokehook-cy.sc" format="1">
  <advance width="1303"/>
  <outline>
    <contour>
      <point x="1001" y="127" type="curve"/>
      <point x="679" y="147" type="line"/>
      <point x="679" y="512" type="line"/>
      <point x="952" y="512" type="line"/>
      <point x="952" y="653" type="line"/>
      <point x="679" y="653" type="line"/>
      <point x="679" y="1155" type="line"/>
      <point x="995" y="1132" type="line"/>
      <point x="1075" y="761" type="line"/>
      <point x="1296" y="761" type="line"/>
      <point x="1262" y="1292" type="line"/>
      <point x="64" y="1292" type="line"/>
      <point x="64" y="1159" type="line"/>
      <point x="289" y="1132" type="line"/>
      <point x="289" y="653" type="line"/>
      <point x="99" y="653" type="line"/>
      <point x="99" y="512" type="line"/>
      <point x="289" y="512" type="line"/>
      <point x="289" y="147" type="line"/>
      <point x="60" y="127" type="line"/>
      <point x="60" y="0" type="line"/>
      <point x="873" y="0" type="line"/>
      <point x="883" y="-38"/>
      <point x="891" y="-85"/>
      <point x="891" y="-131" type="curve" smooth="yes"/>
      <point x="891" y="-239"/>
      <point x="841" y="-264"/>
      <point x="748" y="-264" type="curve" smooth="yes"/>
      <point x="733" y="-264"/>
      <point x="686" y="-260"/>
      <point x="659" y="-253" type="curve"/>
      <point x="660" y="-432" type="line"/>
      <point x="696" y="-445"/>
      <point x="764" y="-457"/>
      <point x="809" y="-457" type="curve" smooth="yes"/>
      <point x="1004" y="-457"/>
      <point x="1136" y="-395"/>
      <point x="1136" y="-195" type="curve" smooth="yes"/>
      <point x="1136" y="-119"/>
      <point x="1098" y="-10"/>
    </contour>
  </outline>
</glyph>
<glyph name="ghemiddlehook-cy.sc" format="1">
  <advance width="1621"/>
  <outline>
    <contour>
      <point x="691" y="681" type="curve"/>
      <point x="691" y="1156" type="line"/>
      <point x="1014" y="1134" type="line"/>
      <point x="1083" y="916" type="line"/>
      <point x="1305" y="916" type="line"/>
      <point x="1282" y="1292" type="line"/>
      <point x="76" y="1292" type="line"/>
      <point x="76" y="1159" type="line"/>
      <point x="298" y="1132" type="line"/>
      <point x="298" y="147" type="line"/>
      <point x="71" y="126" type="line"/>
      <point x="71" y="0" type="line"/>
      <point x="966" y="0" type="line"/>
      <point x="966" y="126" type="line"/>
      <point x="691" y="147" type="line"/>
      <point x="691" y="533" type="line"/>
      <point x="743" y="563"/>
      <point x="832" y="591"/>
      <point x="940" y="591" type="curve" smooth="yes"/>
      <point x="1114" y="591"/>
      <point x="1180" y="494"/>
      <point x="1180" y="245" type="curve" smooth="yes"/>
      <point x="1180" y="-51"/>
      <point x="1096" y="-208"/>
      <point x="926" y="-208" type="curve" smooth="yes"/>
      <point x="818" y="-208"/>
      <point x="786" y="-195"/>
      <point x="763" y="-188" type="curve"/>
      <point x="779" y="-329" type="line"/>
      <point x="813" y="-340"/>
      <point x="882" y="-361"/>
      <point x="986" y="-361" type="curve" smooth="yes"/>
      <point x="1336" y="-361"/>
      <point x="1580" y="-119"/>
      <point x="1580" y="290" type="curve" smooth="yes"/>
      <point x="1580" y="644"/>
      <point x="1373" y="751"/>
      <point x="1031" y="751" type="curve" smooth="yes"/>
      <point x="919" y="751"/>
      <point x="747" y="707"/>
    </contour>
  </outline>
</glyph>
<glyph name="ghestroke-cy.sc" format="1">
  <advance width="1303"/>
  <outline>
    <contour>
      <point x="64" y="1292" type="line"/>
      <point x="64" y="1159" type="line"/>
      <point x="289" y="1132" type="line"/>
      <point x="289" y="653" type="line"/>
      <point x="99" y="653" type="line"/>
      <point x="99" y="512" type="line"/>
      <point x="289" y="512" type="line"/>
      <point x="289" y="147" type="line"/>
      <point x="60" y="127" type="line"/>
      <point x="60" y="0" type="line"/>
      <point x="1006" y="0" type="line"/>
      <point x="1006" y="127" type="line"/>
      <point x="679" y="147" type="line"/>
      <point x="679" y="512" type="line"/>
      <point x="952" y="512" type="line"/>
      <point x="952" y="653" type="line"/>
      <point x="679" y="653" type="line"/>
      <point x="679" y="1155" type="line"/>
      <point x="995" y="1132" type="line"/>
      <point x="1075" y="761" type="line"/>
      <point x="1296" y="761" type="line"/>
      <point x="1262" y="1292" type="line"/>
    </contour>
  </outline>
</glyph>
<glyph name="gje-cy.sc" format="1">
  <advance width="1304"/>
  <outline>
    <contour>
      <point x="643" y="1439" type="line"/>
      <point x="777" y="1484"/>
      <point x="1034" y="1673"/>
      <point x="1112" y="1792" type="curve"/>
      <point x="896" y="1964" type="line"/>
      <point x="510" y="1537" type="line"/>
    </contour>
    <contour>
      <point x="64" y="1292" type="line"/>
      <point x="64" y="1159" type="line"/>
      <point x="289" y="1132" type="line"/>
      <point x="289" y="147" type="line"/>
      <point x="60" y="127" type="line"/>
      <point x="60" y="0" type="line"/>
      <point x="1006" y="0" type="line"/>
      <point x="1006" y="127" type="line"/>
      <point x="679" y="147" type="line"/>
      <point x="679" y="1155" type="line"/>
      <point x="995" y="1132" type="line"/>
      <point x="1075" y="761" type="line"/>
      <point x="1296" y="761" type="line"/>
      <point x="1262" y="1292" type="line"/>
    </contour>
  </outline>
</glyph>
<glyph name="hadescender-cy.sc" format="1">
  <advance width="1577"/>
  <outline>
    <contour>
      <point x="781" y="-144" type="move" name="mark0"/>
    </contour>
    <contour>
      <point x="1594" y="147" type="curve"/>
      <point x="1407" y="147" type="line"/>
      <point x="957" y="699" type="line"/>
      <point x="1348" y="1132" type="line"/>
      <point x="1522" y="1158" type="line"/>
      <point x="1522" y="1292" type="line"/>
      <point x="958" y="1292" type="line"/>
      <point x="958" y="1158" type="line"/>
      <point x="1132" y="1133" type="line"/>
      <point x="868" y="795" type="line"/>
      <point x="617" y="1131" type="line"/>
      <point x="774" y="1158" type="line"/>
      <point x="774" y="1292" type="line"/>
      <point x="25" y="1292" type="line"/>
      <point x="25" y="1158" type="line"/>
      <point x="160" y="1132" type="line"/>
      <point x="582" y="613" type="line"/>
      <point x="188" y="145" type="line"/>
      <point x="16" y="126" type="line"/>
      <point x="16" y="0" type="line"/>
      <point x="605" y="0" type="line"/>
      <point x="605" y="126" type="line"/>
      <point x="413" y="145" type="line"/>
      <point x="677" y="512" type="line"/>
      <point x="952" y="147" type="line"/>
      <point x="793" y="126" type="line"/>
      <point x="793" y="0" type="line"/>
      <point x="1267" y="0" type="line"/>
      <point x="1295" y="-52"/>
      <point x="1334" y="-308"/>
      <point x="1335" y="-364" type="curve"/>
      <point x="1539" y="-364" type="line"/>
      <point x="1551" y="-337"/>
      <point x="1594" y="15"/>
    </contour>
  </outline>
</glyph>
<glyph name="hahook-cy.sc" format="1">
  <advance width="1543"/>
  <outline>
    <contour>
      <point x="978" y="729" type="curve"/>
      <point x="1348" y="1132" type="line"/>
      <point x="1522" y="1158" type="line"/>
      <point x="1522" y="1292" type="line"/>
      <point x="958" y="1292" type="line"/>
      <point x="958" y="1158" type="line"/>
      <point x="1132" y="1133" type="line"/>
      <point x="878" y="821" type="line"/>
      <point x="617" y="1131" type="line"/>
      <point x="774" y="1158" type="line"/>
      <point x="774" y="1292" type="line"/>
      <point x="25" y="1292" type="line"/>
      <point x="25" y="1158" type="line"/>
      <point x="160" y="1132" type="line"/>
      <point x="593" y="638" type="line"/>
      <point x="188" y="145" type="line"/>
      <point x="16" y="126" type="line"/>
      <point x="16" y="0" type="line"/>
      <point x="605" y="0" type="line"/>
      <point x="605" y="126" type="line"/>
      <point x="413" y="145" type="line"/>
      <point x="697" y="540" type="line"/>
      <point x="878" y="334"/>
      <point x="1062" y="132"/>
      <point x="1062" y="-42" type="curve" smooth="yes"/>
      <point x="1062" y="-127"/>
      <point x="1043" y="-203"/>
      <point x="889" y="-273" type="curve"/>
      <point x="1001" y="-360" type="line"/>
      <point x="1230" y="-292"/>
      <point x="1420" y="-131"/>
      <point x="1420" y="70" type="curve" smooth="yes"/>
      <point x="1420" y="299"/>
      <point x="1162" y="536"/>
    </contour>
  </outline>
</glyph>
<glyph name="hardsign-cy.sc" format="1">
  <advance width="1841"/>
  <outline>
    <contour>
      <point x="909" y="-144" type="move" name="mark0"/>
    </contour>
    <contour>
      <point x="1249" y="760" type="curve" smooth="yes"/>
      <point x="989" y="760" type="line"/>
      <point x="989" y="1133" type="line"/>
      <point x="1229" y="1165" type="line"/>
      <point x="1229" y="1292" type="line"/>
      <point x="87" y="1292" type="line"/>
      <point x="50" y="750" type="line"/>
      <point x="273" y="750" type="line"/>
      <point x="354" y="1134" type="line"/>
      <point x="598" y="1156" type="line"/>
      <point x="598" y="147" type="line"/>
      <point x="286" y="127" type="line"/>
      <point x="286" y="0" type="line"/>
      <point x="808" y="0" type="line" smooth="yes"/>
      <point x="896" y="0"/>
      <point x="1197" y="-14"/>
      <point x="1247" y="-14" type="curve" smooth="yes"/>
      <point x="1594" y="-14"/>
      <point x="1801" y="137"/>
      <point x="1801" y="397" type="curve" smooth="yes"/>
      <point x="1801" y="626"/>
      <point x="1635" y="760"/>
    </contour>
    <contour>
      <point x="989" y="132" type="curve"/>
      <point x="989" y="619" type="line"/>
      <point x="1145" y="619" type="line" smooth="yes"/>
      <point x="1299" y="619"/>
      <point x="1397" y="565"/>
      <point x="1397" y="373" type="curve" smooth="yes"/>
      <point x="1397" y="241"/>
      <point x="1335" y="118"/>
      <point x="1125" y="118" type="curve" smooth="yes"/>
      <point x="1069" y="118"/>
      <point x="1024" y="123"/>
    </contour>
  </outline>
</glyph>
<glyph name="ia-cy.sc" format="1">
  <advance width="1567"/>
  <outline>
    <contour>
      <point x="944" y="543" type="curve"/>
      <point x="944" y="145" type="line"/>
      <point x="762" y="127" type="line"/>
      <point x="762" y="0" type="line"/>
      <point x="1505" y="0" type="line"/>
      <point x="1505" y="127" type="line"/>
      <point x="1335" y="145" type="line"/>
      <point x="1335" y="1133" type="line"/>
      <point x="1494" y="1158" type="line"/>
      <point x="1494" y="1292" type="line"/>
      <point x="1145" y="1292" type="line" smooth="yes"/>
      <point x="1007" y="1292"/>
      <point x="932" y="1303"/>
      <point x="764" y="1303" type="curve" smooth="yes"/>
      <point x="326" y="1303"/>
      <point x="159" y="1183"/>
      <point x="159" y="951" type="curve" smooth="yes"/>
      <point x="159" y="804"/>
      <point x="262" y="646"/>
      <point x="472" y="604" type="curve"/>
      <point x="217" y="530"/>
      <point x="184" y="171"/>
      <point x="77" y="145" type="curve"/>
      <point x="5" y="127" type="line"/>
      <point x="5" y="0" type="line"/>
      <point x="436" y="0" type="line" smooth="yes"/>
      <point x="521" y="0"/>
      <point x="591" y="478"/>
      <point x="739" y="544" type="curve"/>
      <point x="852" y="541"/>
      <point x="903" y="541"/>
    </contour>
    <contour>
      <point x="944" y="1171" type="curve"/>
      <point x="944" y="671" type="line"/>
      <point x="922" y="664"/>
      <point x="858" y="664"/>
      <point x="819" y="664" type="curve" smooth="yes"/>
      <point x="658" y="664"/>
      <point x="572" y="752"/>
      <point x="572" y="948" type="curve" smooth="yes"/>
      <point x="572" y="1125"/>
      <point x="670" y="1178"/>
      <point x="815" y="1178" type="curve" smooth="yes"/>
      <point x="889" y="1178"/>
      <point x="920" y="1175"/>
    </contour>
  </outline>
</glyph>
<glyph name="idieresis-cy.sc" format="1">
  <advance width="1820"/>
  <outline>
    <contour>
      <point x="1188" y="1462" type="curve"/>
      <point x="1339" y="1462"/>
      <point x="1384" y="1544"/>
      <point x="1384" y="1649" type="curve" smooth="yes"/>
      <point x="1384" y="1732"/>
      <point x="1335" y="1807"/>
      <point x="1210" y="1807" type="curve" smooth="yes"/>
      <point x="1077" y="1807"/>
      <point x="1020" y="1724"/>
      <point x="1020" y="1620" type="curve" smooth="yes"/>
      <point x="1020" y="1544"/>
      <point x="1075" y="1462"/>
    </contour>
    <contour>
      <point x="637" y="1462" type="curve" smooth="yes"/>
      <point x="787" y="1462"/>
      <point x="833" y="1544"/>
      <point x="833" y="1649" type="curve" smooth="yes"/>
      <point x="833" y="1732"/>
      <point x="784" y="1807"/>
      <point x="658" y="1807" type="curve"/>
      <point x="525" y="1807"/>
      <point x="469" y="1724"/>
      <point x="469" y="1620" type="curve" smooth="yes"/>
      <point x="469" y="1535"/>
      <point x="525" y="1462"/>
    </contour>
    <contour>
      <point x="80" y="1292" type="line"/>
      <point x="80" y="1158" type="line"/>
      <point x="226" y="1134" type="line"/>
      <point x="226" y="144" type="line"/>
      <point x="79" y="126" type="line"/>
      <point x="79" y="0" type="line"/>
      <point x="787" y="0" type="line"/>
      <point x="787" y="126" type="line"/>
      <point x="617" y="146" type="line"/>
      <point x="617" y="190" type="line"/>
      <point x="1101" y="713" type="line"/>
      <point x="1199" y="884" type="line"/>
      <point x="1199" y="147" type="line"/>
      <point x="1042" y="126" type="line"/>
      <point x="1042" y="0" type="line"/>
      <point x="1736" y="0" type="line"/>
      <point x="1736" y="126" type="line"/>
      <point x="1588" y="147" type="line"/>
      <point x="1588" y="1133" type="line"/>
      <point x="1734" y="1158" type="line"/>
      <point x="1734" y="1292" type="line"/>
      <point x="1042" y="1292" type="line"/>
      <point x="1042" y="1158" type="line"/>
      <point x="1199" y="1133" type="line"/>
      <point x="1199" y="1098" type="line"/>
      <point x="729" y="572" type="line"/>
      <point x="617" y="404" type="line"/>
      <point x="617" y="1132" type="line"/>
      <point x="786" y="1160" type="line"/>
      <point x="786" y="1292" type="line"/>
    </contour>
  </outline>
</glyph>
<glyph name="ii-cy.sc" format="1">
  <advance width="1820"/>
  <outline>
    <contour>
      <point x="925" y="1287" type="move" name="top"/>
    </contour>
    <contour>
      <point x="1636" y="0" type="move" name="bottomright"/>
    </contour>
    <contour>
      <point x="80" y="1292" type="line"/>
      <point x="80" y="1158" type="line"/>
      <point x="226" y="1134" type="line"/>
      <point x="226" y="144" type="line"/>
      <point x="79" y="126" type="line"/>
      <point x="79" y="0" type="line"/>
      <point x="787" y="0" type="line"/>
      <point x="787" y="126" type="line"/>
      <point x="617" y="146" type="line"/>
      <point x="617" y="190" type="line"/>
      <point x="1101" y="713" type="line"/>
      <point x="1199" y="884" type="line"/>
      <point x="1199" y="147" type="line"/>
      <point x="1042" y="126" type="line"/>
      <point x="1042" y="0" type="line"/>
      <point x="1736" y="0" type="line"/>
      <point x="1736" y="126" type="line"/>
      <point x="1588" y="147" type="line"/>
      <point x="1588" y="1133" type="line"/>
      <point x="1734" y="1158" type="line"/>
      <point x="1734" y="1292" type="line"/>
      <point x="1042" y="1292" type="line"/>
      <point x="1042" y="1158" type="line"/>
      <point x="1199" y="1133" type="line"/>
      <point x="1199" y="1098" type="line"/>
      <point x="729" y="572" type="line"/>
      <point x="617" y="404" type="line"/>
      <point x="617" y="1132" type="line"/>
      <point x="786" y="1160" type="line"/>
      <point x="786" y="1292" type="line"/>
    </contour>
  </outline>
</glyph>
<glyph name="iigrave-cy.sc" format="1">
  <advance width="1820"/>
  <outline>
    <contour>
      <point x="987" y="1448" type="curve"/>
      <point x="990" y="1448" type="line"/>
      <point x="1121" y="1547" type="line"/>
      <point x="734" y="1973" type="line"/>
      <point x="521" y="1802" type="line"/>
      <point x="598" y="1682"/>
      <point x="861" y="1490"/>
    </contour>
    <contour>
      <point x="80" y="1292" type="line"/>
      <point x="80" y="1158" type="line"/>
      <point x="226" y="1134" type="line"/>
      <point x="226" y="144" type="line"/>
      <point x="79" y="126" type="line"/>
      <point x="79" y="0" type="line"/>
      <point x="787" y="0" type="line"/>
      <point x="787" y="126" type="line"/>
      <point x="617" y="146" type="line"/>
      <point x="617" y="190" type="line"/>
      <point x="1101" y="713" type="line"/>
      <point x="1199" y="884" type="line"/>
      <point x="1199" y="147" type="line"/>
      <point x="1042" y="126" type="line"/>
      <point x="1042" y="0" type="line"/>
      <point x="1736" y="0" type="line"/>
      <point x="1736" y="126" type="line"/>
      <point x="1588" y="147" type="line"/>
      <point x="1588" y="1133" type="line"/>
      <point x="1734" y="1158" type="line"/>
      <point x="1734" y="1292" type="line"/>
      <point x="1042" y="1292" type="line"/>
      <point x="1042" y="1158" type="line"/>
      <point x="1199" y="1133" type="line"/>
      <point x="1199" y="1098" type="line"/>
      <point x="729" y="572" type="line"/>
      <point x="617" y="404" type="line"/>
      <point x="617" y="1132" type="line"/>
      <point x="786" y="1160" type="line"/>
      <point x="786" y="1292" type="line"/>
    </contour>
  </outline>
</glyph>
<glyph name="iishort-cy.sc" format="1">
  <advance width="1820"/>
  <outline>
    <contour>
      <point x="724" y="1839" type="curve" smooth="yes"/>
      <point x="455" y="1839" type="line"/>
      <point x="455" y="1822"/>
      <point x="453" y="1806"/>
      <point x="453" y="1789" type="curve" smooth="yes"/>
      <point x="453" y="1593"/>
      <point x="639" y="1457"/>
      <point x="923" y="1457" type="curve" smooth="yes"/>
      <point x="1221" y="1457"/>
      <point x="1393" y="1592"/>
      <point x="1393" y="1789" type="curve" smooth="yes"/>
      <point x="1393" y="1800"/>
      <point x="1393" y="1828"/>
      <point x="1391" y="1839" type="curve"/>
      <point x="1122" y="1839" type="line" smooth="yes"/>
      <point x="1090" y="1839"/>
      <point x="1084" y="1785"/>
      <point x="1084" y="1750" type="curve" smooth="yes"/>
      <point x="1084" y="1668"/>
      <point x="1029" y="1583"/>
      <point x="926" y="1583" type="curve" smooth="yes"/>
      <point x="818" y="1583"/>
      <point x="761" y="1668"/>
      <point x="761" y="1750" type="curve" smooth="yes"/>
      <point x="761" y="1785"/>
      <point x="756" y="1839"/>
    </contour>
    <contour>
      <point x="80" y="1292" type="line"/>
      <point x="80" y="1158" type="line"/>
      <point x="226" y="1134" type="line"/>
      <point x="226" y="144" type="line"/>
      <point x="79" y="126" type="line"/>
      <point x="79" y="0" type="line"/>
      <point x="787" y="0" type="line"/>
      <point x="787" y="126" type="line"/>
      <point x="617" y="146" type="line"/>
      <point x="617" y="190" type="line"/>
      <point x="1101" y="713" type="line"/>
      <point x="1199" y="884" type="line"/>
      <point x="1199" y="147" type="line"/>
      <point x="1042" y="126" type="line"/>
      <point x="1042" y="0" type="line"/>
      <point x="1736" y="0" type="line"/>
      <point x="1736" y="126" type="line"/>
      <point x="1588" y="147" type="line"/>
      <point x="1588" y="1133" type="line"/>
      <point x="1734" y="1158" type="line"/>
      <point x="1734" y="1292" type="line"/>
      <point x="1042" y="1292" type="line"/>
      <point x="1042" y="1158" type="line"/>
      <point x="1199" y="1133" type="line"/>
      <point x="1199" y="1098" type="line"/>
      <point x="729" y="572" type="line"/>
      <point x="617" y="404" type="line"/>
      <point x="617" y="1132" type="line"/>
      <point x="786" y="1160" type="line"/>
      <point x="786" y="1292" type="line"/>
    </contour>
  </outline>
</glyph>
<glyph name="iishorttail-cy.sc" format="1">
  <advance width="1820"/>
  <outline>
    <contour>
      <point x="1589" y="0" type="move" name="bottomright"/>
    </contour>
    <contour>
      <point x="1762" y="0" type="curve"/>
      <point x="1762" y="144" type="line"/>
      <point x="1544" y="144" type="line"/>
      <point x="1445" y="0" type="line"/>
      <point x="1464" y="0" type="line"/>
      <point x="1441" y="-70"/>
      <point x="1385" y="-240"/>
      <point x="1324" y="-370" type="curve"/>
      <point x="1530" y="-370" type="line"/>
      <point x="1574" y="-314"/>
      <point x="1701" y="-102"/>
    </contour>
    <contour>
      <point x="711" y="1825" type="curve" smooth="yes"/>
      <point x="442" y="1825" type="line"/>
      <point x="442" y="1808"/>
      <point x="440" y="1792"/>
      <point x="440" y="1775" type="curve" smooth="yes"/>
      <point x="440" y="1579"/>
      <point x="626" y="1443"/>
      <point x="910" y="1443" type="curve" smooth="yes"/>
      <point x="1208" y="1443"/>
      <point x="1380" y="1578"/>
      <point x="1380" y="1775" type="curve" smooth="yes"/>
      <point x="1380" y="1786"/>
      <point x="1380" y="1814"/>
      <point x="1378" y="1825" type="curve"/>
      <point x="1109" y="1825" type="line" smooth="yes"/>
      <point x="1077" y="1825"/>
      <point x="1071" y="1771"/>
      <point x="1071" y="1736" type="curve" smooth="yes"/>
      <point x="1071" y="1654"/>
      <point x="1016" y="1569"/>
      <point x="913" y="1569" type="curve" smooth="yes"/>
      <point x="805" y="1569"/>
      <point x="748" y="1654"/>
      <point x="748" y="1736" type="curve" smooth="yes"/>
      <point x="748" y="1771"/>
      <point x="743" y="1825"/>
    </contour>
    <contour>
      <point x="80" y="1292" type="line"/>
      <point x="80" y="1158" type="line"/>
      <point x="226" y="1134" type="line"/>
      <point x="226" y="144" type="line"/>
      <point x="79" y="126" type="line"/>
      <point x="79" y="0" type="line"/>
      <point x="787" y="0" type="line"/>
      <point x="787" y="126" type="line"/>
      <point x="617" y="146" type="line"/>
      <point x="617" y="190" type="line"/>
      <point x="1101" y="713" type="line"/>
      <point x="1199" y="884" type="line"/>
      <point x="1199" y="147" type="line"/>
      <point x="1042" y="126" type="line"/>
      <point x="1042" y="0" type="line"/>
      <point x="1736" y="0" type="line"/>
      <point x="1736" y="126" type="line"/>
      <point x="1588" y="147" type="line"/>
      <point x="1588" y="1133" type="line"/>
      <point x="1734" y="1158" type="line"/>
      <point x="1734" y="1292" type="line"/>
      <point x="1042" y="1292" type="line"/>
      <point x="1042" y="1158" type="line"/>
      <point x="1199" y="1133" type="line"/>
      <point x="1199" y="1098" type="line"/>
      <point x="729" y="572" type="line"/>
      <point x="617" y="404" type="line"/>
      <point x="617" y="1132" type="line"/>
      <point x="786" y="1160" type="line"/>
      <point x="786" y="1292" type="line"/>
    </contour>
  </outline>
</glyph>
<glyph name="imacron-cy.sc" format="1">
  <advance width="1820"/>
  <outline>
    <contour>
      <point x="1271" y="1689" type="line"/>
      <point x="580" y="1689" type="line"/>
      <point x="580" y="1497" type="line"/>
      <point x="1271" y="1497" type="line"/>
    </contour>
    <contour>
      <point x="80" y="1292" type="line"/>
      <point x="80" y="1158" type="line"/>
      <point x="226" y="1134" type="line"/>
      <point x="226" y="144" type="line"/>
      <point x="79" y="126" type="line"/>
      <point x="79" y="0" type="line"/>
      <point x="787" y="0" type="line"/>
      <point x="787" y="126" type="line"/>
      <point x="617" y="146" type="line"/>
      <point x="617" y="190" type="line"/>
      <point x="1101" y="713" type="line"/>
      <point x="1199" y="884" type="line"/>
      <point x="1199" y="147" type="line"/>
      <point x="1042" y="126" type="line"/>
      <point x="1042" y="0" type="line"/>
      <point x="1736" y="0" type="line"/>
      <point x="1736" y="126" type="line"/>
      <point x="1588" y="147" type="line"/>
      <point x="1588" y="1133" type="line"/>
      <point x="1734" y="1158" type="line"/>
      <point x="1734" y="1292" type="line"/>
      <point x="1042" y="1292" type="line"/>
      <point x="1042" y="1158" type="line"/>
      <point x="1199" y="1133" type="line"/>
      <point x="1199" y="1098" type="line"/>
      <point x="729" y="572" type="line"/>
      <point x="617" y="404" type="line"/>
      <point x="617" y="1132" type="line"/>
      <point x="786" y="1160" type="line"/>
      <point x="786" y="1292" type="line"/>
    </contour>
  </outline>
</glyph>
<glyph name="iu-cy.sc" format="1">
  <advance width="2378"/>
  <outline>
    <contour>
      <point x="900" y="738" type="curve"/>
      <point x="623" y="738" type="line"/>
      <point x="623" y="1133" type="line"/>
      <point x="790" y="1158" type="line"/>
      <point x="790" y="1292" type="line"/>
      <point x="76" y="1292" type="line"/>
      <point x="76" y="1158" type="line"/>
      <point x="230" y="1133" type="line"/>
      <point x="230" y="147" type="line"/>
      <point x="73" y="126" type="line"/>
      <point x="73" y="0" type="line"/>
      <point x="795" y="0" type="line"/>
      <point x="795" y="126" type="line"/>
      <point x="624" y="147" type="line"/>
      <point x="624" y="575" type="line"/>
      <point x="898" y="575" type="line"/>
      <point x="915" y="211"/>
      <point x="1122" y="-17"/>
      <point x="1599" y="-17" type="curve" smooth="yes"/>
      <point x="2034" y="-17"/>
      <point x="2311" y="254"/>
      <point x="2312" y="670" type="curve" smooth="yes"/>
      <point x="2314" y="1061"/>
      <point x="2121" y="1309"/>
      <point x="1616" y="1311" type="curve" smooth="yes"/>
      <point x="1217" y="1312"/>
      <point x="941" y="1094"/>
    </contour>
    <contour>
      <point x="1606" y="1185" type="curve" smooth="yes"/>
      <point x="1780" y="1185"/>
      <point x="1880" y="1058"/>
      <point x="1880" y="669" type="curve" smooth="yes"/>
      <point x="1880" y="303"/>
      <point x="1791" y="109"/>
      <point x="1609" y="109" type="curve" smooth="yes"/>
      <point x="1429" y="109"/>
      <point x="1326" y="256"/>
      <point x="1326" y="647" type="curve" smooth="yes"/>
      <point x="1326" y="1014"/>
      <point x="1426" y="1185"/>
    </contour>
  </outline>
</glyph>
<glyph name="izhitsa-cy.sc" format="1">
  <advance width="1643"/>
  <outline>
    <contour>
      <point x="1161" y="1080" type="curve"/>
      <point x="939" y="400" type="line"/>
      <point x="900" y="264" type="line"/>
      <point x="854" y="402" type="line"/>
      <point x="577" y="1132" type="line"/>
      <point x="748" y="1158" type="line"/>
      <point x="748" y="1292" type="line"/>
      <point x="22" y="1292" type="line"/>
      <point x="22" y="1158" type="line"/>
      <point x="150" y="1132" type="line"/>
      <point x="670" y="-12" type="line"/>
      <point x="988" y="-12" type="line"/>
      <point x="1369" y="912" type="line"/>
      <point x="1424" y="1084"/>
      <point x="1508" y="1146"/>
      <point x="1627" y="1146" type="curve" smooth="yes"/>
      <point x="1628" y="1146"/>
      <point x="1632" y="1146"/>
      <point x="1632" y="1146" type="curve"/>
      <point x="1632" y="1288" type="line"/>
      <point x="1609" y="1296"/>
      <point x="1552" y="1308"/>
      <point x="1440" y="1308" type="curve" smooth="yes"/>
      <point x="1318" y="1308"/>
      <point x="1198" y="1248"/>
    </contour>
  </outline>
</glyph>
<glyph name="ka-cy.sc" format="1">
  <advance width="1569"/>
  <outline>
    <contour>
      <point x="784" y="1287" type="move" name="top"/>
    </contour>
    <contour>
      <point x="784" y="648" type="move" name="center"/>
    </contour>
    <contour>
      <point x="1522" y="0" type="move" name="bottomright"/>
    </contour>
    <contour>
      <point x="971" y="707" type="curve"/>
      <point x="1352" y="1133" type="line"/>
      <point x="1534" y="1158" type="line"/>
      <point x="1534" y="1292" type="line"/>
      <point x="941" y="1292" type="line"/>
      <point x="941" y="1158" type="line"/>
      <point x="1080" y="1134" type="line"/>
      <point x="748" y="711" type="line"/>
      <point x="621" y="711" type="line"/>
      <point x="621" y="1133" type="line"/>
      <point x="771" y="1158" type="line"/>
      <point x="771" y="1292" type="line"/>
      <point x="75" y="1292" type="line"/>
      <point x="75" y="1158" type="line"/>
      <point x="230" y="1133" type="line"/>
      <point x="230" y="147" type="line"/>
      <point x="75" y="126" type="line"/>
      <point x="75" y="0" type="line"/>
      <point x="812" y="0" type="line"/>
      <point x="812" y="124" type="line"/>
      <point x="621" y="147" type="line"/>
      <point x="621" y="599" type="line"/>
      <point x="689" y="599" type="line" smooth="yes"/>
      <point x="921" y="599"/>
      <point x="986" y="0"/>
      <point x="1160" y="0" type="curve"/>
      <point x="1570" y="0" type="line"/>
      <point x="1570" y="126" type="line"/>
      <point x="1494" y="147" type="line" smooth="yes"/>
      <point x="1385" y="176"/>
      <point x="1281" y="662"/>
    </contour>
  </outline>
</glyph>
<glyph name="kabashkir-cy.sc" format="1">
  <advance width="1933"/>
  <outline>
    <contour>
      <point x="1107" y="-144" type="move" name="mark0"/>
    </contour>
    <contour>
      <point x="1379" y="718" type="curve"/>
      <point x="1740" y="1133" type="line"/>
      <point x="1914" y="1158" type="line"/>
      <point x="1914" y="1292" type="line"/>
      <point x="1308" y="1292" type="line"/>
      <point x="1308" y="1158" type="line"/>
      <point x="1465" y="1134" type="line"/>
      <point x="1165" y="734" type="line"/>
      <point x="994" y="734" type="line"/>
      <point x="994" y="1133" type="line"/>
      <point x="1146" y="1158" type="line"/>
      <point x="1146" y="1292" type="line"/>
      <point x="82" y="1292" type="line"/>
      <point x="52" y="764" type="line"/>
      <point x="273" y="764" type="line"/>
      <point x="351" y="1134" type="line"/>
      <point x="603" y="1155" type="line"/>
      <point x="603" y="147" type="line"/>
      <point x="433" y="126" type="line"/>
      <point x="433" y="0" type="line"/>
      <point x="1181" y="0" type="line"/>
      <point x="1181" y="124" type="line"/>
      <point x="994" y="145" type="line"/>
      <point x="994" y="615" type="line"/>
      <point x="1044" y="615" type="line" smooth="yes"/>
      <point x="1278" y="615"/>
      <point x="1392" y="0"/>
      <point x="1584" y="0" type="curve"/>
      <point x="1973" y="0" type="line"/>
      <point x="1973" y="126" type="line"/>
      <point x="1878" y="147" type="line" smooth="yes"/>
      <point x="1781" y="176"/>
      <point x="1640" y="627"/>
    </contour>
  </outline>
</glyph>
<glyph name="kadescender-cy.sc" format="1">
  <advance width="1613"/>
  <outline>
    <contour>
      <point x="967" y="707" type="curve"/>
      <point x="1348" y="1133" type="line"/>
      <point x="1530" y="1158" type="line"/>
      <point x="1530" y="1292" type="line"/>
      <point x="936" y="1292" type="line"/>
      <point x="936" y="1158" type="line"/>
      <point x="1076" y="1134" type="line"/>
      <point x="743" y="711" type="line"/>
      <point x="617" y="711" type="line"/>
      <point x="617" y="1133" type="line"/>
      <point x="767" y="1158" type="line"/>
      <point x="767" y="1292" type="line"/>
      <point x="71" y="1292" type="line"/>
      <point x="71" y="1158" type="line"/>
      <point x="224" y="1133" type="line"/>
      <point x="224" y="147" type="line"/>
      <point x="71" y="126" type="line"/>
      <point x="71" y="0" type="line"/>
      <point x="806" y="0" type="line"/>
      <point x="806" y="124" type="line"/>
      <point x="617" y="147" type="line"/>
      <point x="617" y="599" type="line"/>
      <point x="685" y="599" type="line" smooth="yes"/>
      <point x="915" y="599"/>
      <point x="982" y="0"/>
      <point x="1155" y="0" type="curve" smooth="yes"/>
      <point x="1309" y="0" type="line"/>
      <point x="1336" y="-53"/>
      <point x="1379" y="-306"/>
      <point x="1379" y="-366" type="curve"/>
      <point x="1583" y="-366" type="line"/>
      <point x="1594" y="-332"/>
      <point x="1635" y="9"/>
      <point x="1638" y="147" type="curve"/>
      <point x="1488" y="147" type="line"/>
      <point x="1381" y="179"/>
      <point x="1276" y="662"/>
    </contour>
  </outline>
</glyph>
<glyph name="kastroke-cy.sc" format="1">
  <advance width="1575"/>
  <outline>
    <contour>
      <point x="740" y="-144" type="move" name="mark0"/>
    </contour>
    <contour>
      <point x="1014" y="708" type="curve"/>
      <point x="1359" y="1132" type="line"/>
      <point x="1541" y="1158" type="line"/>
      <point x="1541" y="1292" type="line"/>
      <point x="946" y="1292" type="line"/>
      <point x="946" y="1158" type="line"/>
      <point x="1089" y="1134" type="line"/>
      <point x="791" y="712" type="line"/>
      <point x="626" y="712" type="line"/>
      <point x="626" y="900" type="line"/>
      <point x="804" y="900" type="line"/>
      <point x="804" y="1014" type="line"/>
      <point x="626" y="1014" type="line"/>
      <point x="626" y="1132" type="line"/>
      <point x="779" y="1158" type="line"/>
      <point x="779" y="1292" type="line"/>
      <point x="80" y="1292" type="line"/>
      <point x="80" y="1158" type="line"/>
      <point x="237" y="1132" type="line"/>
      <point x="237" y="1014" type="line"/>
      <point x="70" y="1014" type="line"/>
      <point x="70" y="900" type="line"/>
      <point x="237" y="900" type="line"/>
      <point x="237" y="146" type="line"/>
      <point x="80" y="126" type="line"/>
      <point x="80" y="0" type="line"/>
      <point x="818" y="0" type="line"/>
      <point x="818" y="124" type="line"/>
      <point x="626" y="146" type="line"/>
      <point x="626" y="598" type="line"/>
      <point x="733" y="598" type="line" smooth="yes"/>
      <point x="964" y="598"/>
      <point x="994" y="0"/>
      <point x="1168" y="0" type="curve" smooth="yes"/>
      <point x="1577" y="0" type="line"/>
      <point x="1577" y="126" type="line"/>
      <point x="1502" y="146" type="line" smooth="yes"/>
      <point x="1393" y="178"/>
      <point x="1326" y="662"/>
    </contour>
  </outline>
</glyph>
<glyph name="kaverticalstroke-cy.sc" format="1">
  <advance width="1727"/>
  <outline>
    <contour>
      <point x="1175" y="724" type="curve"/>
      <point x="1489" y="1134" type="line"/>
      <point x="1668" y="1158" type="line"/>
      <point x="1668" y="1292" type="line"/>
      <point x="1055" y="1292" type="line"/>
      <point x="1055" y="1158" type="line"/>
      <point x="1217" y="1132" type="line"/>
      <point x="960" y="734" type="line"/>
      <point x="893" y="734" type="line"/>
      <point x="893" y="964" type="line"/>
      <point x="752" y="964" type="line"/>
      <point x="752" y="734" type="line"/>
      <point x="621" y="734" type="line"/>
      <point x="621" y="1133" type="line"/>
      <point x="771" y="1158" type="line"/>
      <point x="771" y="1292" type="line"/>
      <point x="75" y="1292" type="line"/>
      <point x="75" y="1158" type="line"/>
      <point x="230" y="1133" type="line"/>
      <point x="230" y="147" type="line"/>
      <point x="75" y="126" type="line"/>
      <point x="75" y="0" type="line"/>
      <point x="812" y="0" type="line"/>
      <point x="812" y="124" type="line"/>
      <point x="621" y="147" type="line"/>
      <point x="621" y="615" type="line"/>
      <point x="752" y="615" type="line"/>
      <point x="752" y="314" type="line"/>
      <point x="893" y="314" type="line"/>
      <point x="893" y="602" type="line"/>
      <point x="947" y="602" type="line" smooth="yes"/>
      <point x="1126" y="524"/>
      <point x="1166" y="0"/>
      <point x="1389" y="0" type="curve" smooth="yes"/>
      <point x="1744" y="-4" type="line"/>
      <point x="1744" y="126" type="line"/>
      <point x="1670" y="147" type="line" smooth="yes"/>
      <point x="1573" y="180"/>
      <point x="1447" y="650"/>
    </contour>
  </outline>
</glyph>
<glyph name="komide-cy.sc" format="1">
  <advance width="1469"/>
  <outline>
    <contour>
      <point x="1008" y="0" type="curve"/>
      <point x="1397" y="0" type="line"/>
      <point x="1397" y="126" type="line"/>
      <point x="1239" y="145" type="line"/>
      <point x="1239" y="1134" type="line"/>
      <point x="1395" y="1163" type="line"/>
      <point x="1395" y="1292" type="line"/>
      <point x="605" y="1292" type="line"/>
      <point x="605" y="1163" type="line"/>
      <point x="848" y="1134" type="line"/>
      <point x="848" y="773" type="line"/>
      <point x="801" y="779"/>
      <point x="692" y="789"/>
      <point x="594" y="789" type="curve" smooth="yes"/>
      <point x="227" y="789"/>
      <point x="42" y="607"/>
      <point x="42" y="372" type="curve" smooth="yes"/>
      <point x="42" y="121"/>
      <point x="260" y="-18"/>
      <point x="578" y="-18" type="curve" smooth="yes"/>
      <point x="738" y="-18"/>
      <point x="850" y="-2"/>
    </contour>
    <contour>
      <point x="848" y="648" type="curve"/>
      <point x="848" y="133" type="line"/>
      <point x="812" y="125"/>
      <point x="764" y="119"/>
      <point x="714" y="119" type="curve" smooth="yes"/>
      <point x="523" y="119"/>
      <point x="457" y="241"/>
      <point x="457" y="373" type="curve" smooth="yes"/>
      <point x="457" y="551"/>
      <point x="532" y="655"/>
      <point x="693" y="655" type="curve" smooth="yes"/>
      <point x="768" y="655"/>
      <point x="802" y="655"/>
    </contour>
  </outline>
</glyph>
<glyph name="komidje-cy.sc" format="1">
  <advance width="2230"/>
  <outline>
    <contour>
      <point x="2073" y="296" type="curve" smooth="yes"/>
      <point x="2073" y="580" type="line"/>
      <point x="2215" y="608" type="line"/>
      <point x="2215" y="736" type="line"/>
      <point x="1522" y="736" type="line"/>
      <point x="1522" y="608" type="line"/>
      <point x="1677" y="582" type="line"/>
      <point x="1677" y="298" type="line" smooth="yes"/>
      <point x="1677" y="188"/>
      <point x="1618" y="118"/>
      <point x="1462" y="118" type="curve" smooth="yes"/>
      <point x="1312" y="118"/>
      <point x="1240" y="168"/>
      <point x="1238" y="300" type="curve" smooth="yes"/>
      <point x="1238" y="1136" type="line"/>
      <point x="1393" y="1162" type="line"/>
      <point x="1393" y="1292" type="line"/>
      <point x="629" y="1292" type="line"/>
      <point x="631" y="1162" type="line"/>
      <point x="847" y="1136" type="line"/>
      <point x="847" y="772" type="line"/>
      <point x="800" y="778"/>
      <point x="692" y="788"/>
      <point x="591" y="788" type="curve" smooth="yes"/>
      <point x="226" y="788"/>
      <point x="42" y="608"/>
      <point x="42" y="372" type="curve" smooth="yes"/>
      <point x="42" y="120"/>
      <point x="260" y="-18"/>
      <point x="577" y="-18" type="curve" smooth="yes"/>
      <point x="788" y="-18"/>
      <point x="910" y="10"/>
      <point x="1011" y="56" type="curve"/>
      <point x="1110" y="8"/>
      <point x="1257" y="-14"/>
      <point x="1446" y="-14" type="curve" smooth="yes"/>
      <point x="1810" y="-14"/>
      <point x="2073" y="82"/>
    </contour>
    <contour>
      <point x="847" y="648" type="curve"/>
      <point x="847" y="308" type="line" smooth="yes"/>
      <point x="847" y="264"/>
      <point x="856" y="216"/>
      <point x="873" y="182" type="curve"/>
      <point x="840" y="142"/>
      <point x="769" y="120"/>
      <point x="713" y="120" type="curve" smooth="yes"/>
      <point x="521" y="120"/>
      <point x="456" y="240"/>
      <point x="456" y="374" type="curve" smooth="yes"/>
      <point x="456" y="550"/>
      <point x="532" y="654"/>
      <point x="692" y="654" type="curve" smooth="yes"/>
      <point x="766" y="654"/>
      <point x="802" y="654"/>
    </contour>
  </outline>
</glyph>
<glyph name="komidzje-cy.sc" format="1">
  <advance width="1527"/>
  <outline>
    <contour>
      <point x="533" y="747" type="curve" smooth="yes"/>
      <point x="419" y="747" type="line"/>
      <point x="419" y="604" type="line"/>
      <point x="550" y="604" type="line" smooth="yes"/>
      <point x="777" y="604"/>
      <point x="832" y="465"/>
      <point x="832" y="357" type="curve" smooth="yes"/>
      <point x="832" y="226"/>
      <point x="762" y="137"/>
      <point x="652" y="139" type="curve"/>
      <point x="652" y="0" type="line"/>
      <point x="1188" y="0" type="line"/>
      <point x="1198" y="-39"/>
      <point x="1232" y="-248"/>
      <point x="1235" y="-370" type="curve"/>
      <point x="1432" y="-370" type="line"/>
      <point x="1451" y="-278"/>
      <point x="1489" y="-12"/>
      <point x="1492" y="155" type="curve"/>
      <point x="1190" y="155" type="line"/>
      <point x="1223" y="178"/>
      <point x="1281" y="241"/>
      <point x="1281" y="348" type="curve" smooth="yes"/>
      <point x="1281" y="534"/>
      <point x="1104" y="675"/>
      <point x="836" y="682" type="curve"/>
      <point x="1025" y="711"/>
      <point x="1191" y="810"/>
      <point x="1191" y="1010" type="curve" smooth="yes"/>
      <point x="1191" y="1210"/>
      <point x="988" y="1306"/>
      <point x="602" y="1306" type="curve" smooth="yes"/>
      <point x="442" y="1306"/>
      <point x="189" y="1260"/>
      <point x="101" y="1256" type="curve"/>
      <point x="138" y="954" type="line"/>
      <point x="351" y="954" type="line"/>
      <point x="397" y="1133" type="line"/>
      <point x="412" y="1157"/>
      <point x="458" y="1183"/>
      <point x="562" y="1183" type="curve" smooth="yes"/>
      <point x="698" y="1183"/>
      <point x="779" y="1130"/>
      <point x="779" y="998" type="curve"/>
      <point x="779" y="795"/>
      <point x="651" y="747"/>
    </contour>
  </outline>
</glyph>
<glyph name="komilje-cy.sc" format="1">
  <advance width="2409"/>
  <outline>
    <contour>
      <point x="657" y="-144" type="move" name="mark0"/>
    </contour>
    <contour>
      <point x="2249" y="296" type="curve" smooth="yes"/>
      <point x="2249" y="580" type="line"/>
      <point x="2393" y="608" type="line"/>
      <point x="2393" y="738" type="line"/>
      <point x="1698" y="738" type="line"/>
      <point x="1698" y="608" type="line"/>
      <point x="1856" y="580" type="line"/>
      <point x="1856" y="298" type="line" smooth="yes"/>
      <point x="1856" y="188"/>
      <point x="1796" y="118"/>
      <point x="1638" y="118" type="curve" smooth="yes"/>
      <point x="1474" y="118"/>
      <point x="1414" y="180"/>
      <point x="1414" y="300" type="curve" smooth="yes"/>
      <point x="1414" y="1132" type="line"/>
      <point x="1610" y="1158" type="line"/>
      <point x="1610" y="1292" type="line"/>
      <point x="208" y="1292" type="line"/>
      <point x="208" y="1158" type="line"/>
      <point x="474" y="1132" type="line"/>
      <point x="474" y="1024" type="line" smooth="yes"/>
      <point x="474" y="590"/>
      <point x="417" y="358"/>
      <point x="350" y="244" type="curve"/>
      <point x="314" y="184"/>
      <point x="279" y="166"/>
      <point x="219" y="166" type="curve" smooth="yes"/>
      <point x="146" y="166"/>
      <point x="106" y="170"/>
      <point x="56" y="174" type="curve"/>
      <point x="79" y="0" type="line"/>
      <point x="122" y="-8"/>
      <point x="182" y="-12"/>
      <point x="253" y="-12" type="curve" smooth="yes"/>
      <point x="368" y="-12"/>
      <point x="441" y="40"/>
      <point x="498" y="132" type="curve" smooth="yes"/>
      <point x="604" y="306"/>
      <point x="650" y="674"/>
      <point x="650" y="1020" type="curve" smooth="yes"/>
      <point x="650" y="1132" type="line"/>
      <point x="1023" y="1132" type="line"/>
      <point x="1023" y="308" type="line" smooth="yes"/>
      <point x="1023" y="98"/>
      <point x="1191" y="-14"/>
      <point x="1625" y="-14" type="curve" smooth="yes"/>
      <point x="1986" y="-14"/>
      <point x="2249" y="82"/>
    </contour>
  </outline>
</glyph>
<glyph name="kominje-cy.sc" format="1">
  <advance width="2529"/>
  <outline>
    <contour>
      <point x="1551" y="300" type="curve" smooth="yes"/>
      <point x="1551" y="1134" type="line"/>
      <point x="1712" y="1162" type="line"/>
      <point x="1712" y="1292" type="line"/>
      <point x="976" y="1292" type="line"/>
      <point x="976" y="1162" type="line"/>
      <point x="1158" y="1136" type="line"/>
      <point x="1158" y="739" type="line"/>
      <point x="624" y="739" type="line"/>
      <point x="624" y="1133" type="line"/>
      <point x="795" y="1158" type="line"/>
      <point x="795" y="1292" type="line"/>
      <point x="79" y="1292" type="line"/>
      <point x="79" y="1158" type="line"/>
      <point x="230" y="1134" type="line"/>
      <point x="230" y="145" type="line"/>
      <point x="73" y="126" type="line"/>
      <point x="73" y="0" type="line"/>
      <point x="781" y="0" type="line"/>
      <point x="781" y="126" type="line"/>
      <point x="624" y="145" type="line"/>
      <point x="624" y="574" type="line"/>
      <point x="1158" y="574" type="line"/>
      <point x="1158" y="308" type="line" smooth="yes"/>
      <point x="1159" y="95"/>
      <point x="1325" y="-14"/>
      <point x="1745" y="-14" type="curve" smooth="yes"/>
      <point x="2108" y="-14"/>
      <point x="2370" y="82"/>
      <point x="2370" y="296" type="curve" smooth="yes"/>
      <point x="2370" y="580" type="line"/>
      <point x="2513" y="607" type="line"/>
      <point x="2513" y="737" type="line"/>
      <point x="1821" y="737" type="line"/>
      <point x="1821" y="607" type="line"/>
      <point x="1977" y="580" type="line"/>
      <point x="1977" y="297" type="line" smooth="yes"/>
      <point x="1977" y="188"/>
      <point x="1917" y="118"/>
      <point x="1759" y="118" type="curve" smooth="yes"/>
      <point x="1617" y="118"/>
      <point x="1554" y="169"/>
    </contour>
  </outline>
</glyph>
<glyph name="komisje-cy.sc" format="1">
  <advance width="1628"/>
  <outline>
    <contour>
      <point x="807" y="-144" type="move" name="mark0"/>
    </contour>
    <contour>
      <point x="1462" y="296" type="curve" smooth="yes"/>
      <point x="1462" y="580" type="line"/>
      <point x="1606" y="607" type="line"/>
      <point x="1606" y="737" type="line"/>
      <point x="943" y="737" type="line"/>
      <point x="943" y="607" type="line"/>
      <point x="1100" y="580" type="line"/>
      <point x="1100" y="297" type="line" smooth="yes"/>
      <point x="1100" y="188"/>
      <point x="1039" y="116"/>
      <point x="876" y="118" type="curve" smooth="yes"/>
      <point x="634" y="118"/>
      <point x="508" y="366"/>
      <point x="508" y="668" type="curve" smooth="yes"/>
      <point x="508" y="1020"/>
      <point x="647" y="1183"/>
      <point x="896" y="1183" type="curve" smooth="yes"/>
      <point x="1028" y="1183"/>
      <point x="1081" y="1156"/>
      <point x="1109" y="1135" type="curve"/>
      <point x="1172" y="915" type="line"/>
      <point x="1445" y="915" type="line"/>
      <point x="1472" y="1257" type="line"/>
      <point x="1392" y="1270"/>
      <point x="1136" y="1311"/>
      <point x="907" y="1311" type="curve" smooth="yes"/>
      <point x="402" y="1311"/>
      <point x="57" y="1059"/>
      <point x="57" y="631" type="curve" smooth="yes"/>
      <point x="57" y="251"/>
      <point x="360" y="-14"/>
      <point x="863" y="-14" type="curve" smooth="yes"/>
      <point x="1214" y="-14"/>
      <point x="1462" y="84"/>
    </contour>
  </outline>
</glyph>
<glyph name="komitje-cy.sc" format="1">
  <advance width="1982"/>
  <outline>
    <contour>
      <point x="907" y="-144" type="move" name="mark0"/>
    </contour>
    <contour>
      <point x="991" y="300" type="curve" smooth="yes"/>
      <point x="991" y="1154" type="line"/>
      <point x="1276" y="1133" type="line"/>
      <point x="1351" y="863" type="line"/>
      <point x="1567" y="863" type="line"/>
      <point x="1530" y="1292" type="line"/>
      <point x="71" y="1292" type="line"/>
      <point x="42" y="863" type="line"/>
      <point x="237" y="863" type="line"/>
      <point x="316" y="1133" type="line"/>
      <point x="598" y="1154" type="line"/>
      <point x="598" y="308" type="line" smooth="yes"/>
      <point x="598" y="96"/>
      <point x="766" y="-14"/>
      <point x="1200" y="-14" type="curve" smooth="yes"/>
      <point x="1560" y="-14"/>
      <point x="1822" y="82"/>
      <point x="1822" y="296" type="curve" smooth="yes"/>
      <point x="1822" y="580" type="line"/>
      <point x="1966" y="607" type="line"/>
      <point x="1966" y="737" type="line"/>
      <point x="1273" y="737" type="line"/>
      <point x="1273" y="607" type="line"/>
      <point x="1430" y="580" type="line"/>
      <point x="1430" y="297" type="line" smooth="yes"/>
      <point x="1430" y="188"/>
      <point x="1370" y="118"/>
      <point x="1212" y="118" type="curve" smooth="yes"/>
      <point x="1045" y="118"/>
      <point x="991" y="180"/>
    </contour>
  </outline>
</glyph>
<glyph name="komizje-cy.sc" format="1">
  <advance width="2266"/>
  <outline>
    <contour>
      <point x="2110" y="296" type="curve" smooth="yes"/>
      <point x="2110" y="580" type="line"/>
      <point x="2250" y="607" type="line"/>
      <point x="2250" y="737" type="line"/>
      <point x="1559" y="737" type="line"/>
      <point x="1559" y="607" type="line"/>
      <point x="1715" y="581" type="line"/>
      <point x="1715" y="297" type="line" smooth="yes"/>
      <point x="1715" y="188"/>
      <point x="1657" y="118"/>
      <point x="1498" y="118" type="curve" smooth="yes"/>
      <point x="1350" y="118"/>
      <point x="1275" y="164"/>
      <point x="1275" y="300" type="curve" smooth="yes"/>
      <point x="1275" y="519"/>
      <point x="1102" y="678"/>
      <point x="827" y="682" type="curve"/>
      <point x="1013" y="701"/>
      <point x="1191" y="800"/>
      <point x="1191" y="1010" type="curve" smooth="yes"/>
      <point x="1191" y="1210"/>
      <point x="988" y="1306"/>
      <point x="602" y="1306" type="curve" smooth="yes"/>
      <point x="442" y="1306"/>
      <point x="189" y="1260"/>
      <point x="101" y="1256" type="curve"/>
      <point x="138" y="954" type="line"/>
      <point x="351" y="954" type="line"/>
      <point x="397" y="1133" type="line"/>
      <point x="412" y="1157"/>
      <point x="458" y="1183"/>
      <point x="562" y="1183" type="curve" smooth="yes"/>
      <point x="698" y="1183"/>
      <point x="779" y="1130"/>
      <point x="779" y="998" type="curve"/>
      <point x="779" y="795"/>
      <point x="651" y="747"/>
      <point x="534" y="747" type="curve" smooth="yes"/>
      <point x="419" y="747" type="line"/>
      <point x="419" y="604" type="line"/>
      <point x="551" y="604" type="line" smooth="yes"/>
      <point x="779" y="604"/>
      <point x="832" y="457"/>
      <point x="832" y="308" type="curve" smooth="yes"/>
      <point x="832" y="78"/>
      <point x="1070" y="-14"/>
      <point x="1486" y="-14" type="curve" smooth="yes"/>
      <point x="1849" y="-14"/>
      <point x="2110" y="83"/>
    </contour>
  </outline>
</glyph>
<glyph name="lje-cy.sc" format="1">
  <advance width="2257"/>
  <outline>
    <contour>
      <point x="696" y="-144" type="move" name="mark0"/>
    </contour>
    <contour>
      <point x="1411" y="725" type="curve"/>
      <point x="1411" y="1133" type="line"/>
      <point x="1605" y="1158" type="line"/>
      <point x="1605" y="1292" type="line"/>
      <point x="228" y="1292" type="line"/>
      <point x="228" y="1158" type="line"/>
      <point x="475" y="1134" type="line"/>
      <point x="475" y="1023" type="line" smooth="yes"/>
      <point x="475" y="589"/>
      <point x="420" y="358"/>
      <point x="352" y="245" type="curve"/>
      <point x="319" y="185"/>
      <point x="284" y="167"/>
      <point x="222" y="167" type="curve" smooth="yes"/>
      <point x="146" y="167"/>
      <point x="108" y="171"/>
      <point x="56" y="173" type="curve"/>
      <point x="81" y="0" type="line"/>
      <point x="126" y="-8"/>
      <point x="184" y="-13"/>
      <point x="256" y="-13" type="curve" smooth="yes"/>
      <point x="368" y="-13"/>
      <point x="442" y="40"/>
      <point x="500" y="133" type="curve" smooth="yes"/>
      <point x="607" y="305"/>
      <point x="652" y="678"/>
      <point x="652" y="1019" type="curve" smooth="yes"/>
      <point x="652" y="1131" type="line"/>
      <point x="1023" y="1131" type="line"/>
      <point x="1023" y="147" type="line"/>
      <point x="802" y="126" type="line"/>
      <point x="802" y="0" type="line"/>
      <point x="1228" y="0" type="line" smooth="yes"/>
      <point x="1318" y="0"/>
      <point x="1615" y="-14"/>
      <point x="1665" y="-14" type="curve" smooth="yes"/>
      <point x="2014" y="-14"/>
      <point x="2217" y="135"/>
      <point x="2217" y="388" type="curve" smooth="yes"/>
      <point x="2217" y="611"/>
      <point x="2048" y="743"/>
      <point x="1680" y="743" type="curve" smooth="yes"/>
      <point x="1599" y="743"/>
      <point x="1441" y="730"/>
    </contour>
    <contour>
      <point x="1411" y="134" type="curve"/>
      <point x="1411" y="591" type="line"/>
      <point x="1432" y="594"/>
      <point x="1512" y="601"/>
      <point x="1566" y="601" type="curve" smooth="yes"/>
      <point x="1738" y="601"/>
      <point x="1816" y="534"/>
      <point x="1816" y="364" type="curve" smooth="yes"/>
      <point x="1816" y="237"/>
      <point x="1757" y="118"/>
      <point x="1544" y="118" type="curve" smooth="yes"/>
      <point x="1489" y="118"/>
      <point x="1448" y="124"/>
    </contour>
  </outline>
</glyph>
<glyph name="nje-cy.sc" format="1">
  <advance width="2383"/>
  <outline>
    <contour>
      <point x="853" y="-144" type="move" name="mark0"/>
    </contour>
    <contour>
      <point x="1807" y="747" type="curve" smooth="yes"/>
      <point x="1540" y="747" type="line"/>
      <point x="1540" y="1136" type="line"/>
      <point x="1697" y="1162" type="line"/>
      <point x="1697" y="1292" type="line"/>
      <point x="979" y="1292" type="line"/>
      <point x="979" y="1162" type="line"/>
      <point x="1149" y="1134" type="line"/>
      <point x="1149" y="731" type="line"/>
      <point x="622" y="731" type="line"/>
      <point x="622" y="1133" type="line"/>
      <point x="798" y="1158" type="line"/>
      <point x="798" y="1292" type="line"/>
      <point x="76" y="1292" type="line"/>
      <point x="76" y="1158" type="line"/>
      <point x="230" y="1134" type="line"/>
      <point x="230" y="145" type="line"/>
      <point x="71" y="126" type="line"/>
      <point x="71" y="0" type="line"/>
      <point x="800" y="0" type="line"/>
      <point x="800" y="132" type="line"/>
      <point x="622" y="156" type="line"/>
      <point x="622" y="581" type="line"/>
      <point x="1149" y="581" type="line"/>
      <point x="1149" y="156" type="line"/>
      <point x="982" y="132" type="line"/>
      <point x="982" y="0" type="line"/>
      <point x="1354" y="0" type="line" smooth="yes"/>
      <point x="1441" y="0"/>
      <point x="1754" y="-15"/>
      <point x="1806" y="-15" type="curve" smooth="yes"/>
      <point x="2122" y="-15"/>
      <point x="2347" y="127"/>
      <point x="2347" y="386" type="curve" smooth="yes"/>
      <point x="2347" y="613"/>
      <point x="2138" y="747"/>
    </contour>
    <contour>
      <point x="1540" y="133" type="curve"/>
      <point x="1540" y="609" type="line"/>
      <point x="1694" y="609" type="line" smooth="yes"/>
      <point x="1846" y="609"/>
      <point x="1944" y="559"/>
      <point x="1944" y="369" type="curve" smooth="yes"/>
      <point x="1944" y="240"/>
      <point x="1885" y="117"/>
      <point x="1671" y="117" type="curve" smooth="yes"/>
      <point x="1616" y="117"/>
      <point x="1570" y="126"/>
    </contour>
  </outline>
</glyph>
<glyph name="pedescender-cy.sc" format="1">
  <advance width="1785"/>
  <outline>
    <contour>
      <point x="1744" y="147" type="curve"/>
      <point x="1509" y="147" type="line"/>
      <point x="1509" y="1134" type="line"/>
      <point x="1669" y="1160" type="line"/>
      <point x="1669" y="1292" type="line"/>
      <point x="71" y="1292" type="line"/>
      <point x="71" y="1158" type="line"/>
      <point x="231" y="1133" type="line"/>
      <point x="231" y="145" type="line"/>
      <point x="75" y="126" type="line"/>
      <point x="75" y="0" type="line"/>
      <point x="781" y="0" type="line"/>
      <point x="781" y="126" type="line"/>
      <point x="623" y="145" type="line"/>
      <point x="623" y="1153" type="line"/>
      <point x="1120" y="1153" type="line"/>
      <point x="1120" y="145" type="line"/>
      <point x="971" y="126" type="line"/>
      <point x="971" y="0" type="line"/>
      <point x="1415" y="0" type="line"/>
      <point x="1444" y="-54"/>
      <point x="1485" y="-308"/>
      <point x="1486" y="-366" type="curve"/>
      <point x="1691" y="-366" type="line"/>
      <point x="1699" y="-334"/>
      <point x="1744" y="12"/>
    </contour>
  </outline>
</glyph>
<glyph name="pemiddlehook-cy.sc" format="1">
  <advance width="2439"/>
  <outline>
    <contour>
      <point x="836" y="-144" type="move" name="mark0"/>
    </contour>
    <contour>
      <point x="1509" y="683" type="curve"/>
      <point x="1509" y="1134" type="line"/>
      <point x="1669" y="1160" type="line"/>
      <point x="1669" y="1292" type="line"/>
      <point x="71" y="1292" type="line"/>
      <point x="71" y="1158" type="line"/>
      <point x="231" y="1133" type="line"/>
      <point x="231" y="145" type="line"/>
      <point x="75" y="126" type="line"/>
      <point x="75" y="0" type="line"/>
      <point x="781" y="0" type="line"/>
      <point x="781" y="126" type="line"/>
      <point x="623" y="145" type="line"/>
      <point x="623" y="1153" type="line"/>
      <point x="1120" y="1153" type="line"/>
      <point x="1120" y="145" type="line"/>
      <point x="971" y="126" type="line"/>
      <point x="971" y="0" type="line"/>
      <point x="1679" y="0" type="line"/>
      <point x="1679" y="126" type="line"/>
      <point x="1509" y="147" type="line"/>
      <point x="1509" y="533" type="line"/>
      <point x="1556" y="563"/>
      <point x="1640" y="590"/>
      <point x="1749" y="590" type="curve" smooth="yes"/>
      <point x="1925" y="590"/>
      <point x="1988" y="492"/>
      <point x="1988" y="245" type="curve" smooth="yes"/>
      <point x="1988" y="-53"/>
      <point x="1905" y="-207"/>
      <point x="1740" y="-207" type="curve" smooth="yes"/>
      <point x="1635" y="-207"/>
      <point x="1598" y="-196"/>
      <point x="1574" y="-188" type="curve"/>
      <point x="1589" y="-329" type="line"/>
      <point x="1623" y="-340"/>
      <point x="1694" y="-361"/>
      <point x="1797" y="-361" type="curve" smooth="yes"/>
      <point x="2146" y="-361"/>
      <point x="2380" y="-119"/>
      <point x="2380" y="291" type="curve" smooth="yes"/>
      <point x="2380" y="644"/>
      <point x="2184" y="751"/>
      <point x="1841" y="751" type="curve" smooth="yes"/>
      <point x="1727" y="751"/>
      <point x="1563" y="709"/>
    </contour>
  </outline>
</glyph>
<glyph name="semisoftsign-cy.sc" format="1">
  <advance width="1474"/>
  <outline>
    <contour>
      <point x="622" y="771" type="curve"/>
      <point x="622" y="910" type="line"/>
      <point x="911" y="910" type="line"/>
      <point x="911" y="1027" type="line"/>
      <point x="622" y="1027" type="line"/>
      <point x="622" y="1134" type="line"/>
      <point x="849" y="1162" type="line"/>
      <point x="849" y="1292" type="line"/>
      <point x="75" y="1292" type="line"/>
      <point x="75" y="1162" type="line"/>
      <point x="230" y="1136" type="line"/>
      <point x="230" y="1027" type="line"/>
      <point x="44" y="1027" type="line"/>
      <point x="44" y="910" type="line"/>
      <point x="230" y="910" type="line"/>
      <point x="230" y="145" type="line"/>
      <point x="73" y="126" type="line"/>
      <point x="73" y="0" type="line"/>
      <point x="393" y="0" type="line" smooth="yes"/>
      <point x="580" y="0"/>
      <point x="716" y="-14"/>
      <point x="862" y="-14" type="curve" smooth="yes"/>
      <point x="1178" y="-14"/>
      <point x="1434" y="144"/>
      <point x="1434" y="402" type="curve" smooth="yes"/>
      <point x="1434" y="632"/>
      <point x="1260" y="777"/>
      <point x="895" y="777" type="curve"/>
      <point x="852" y="777"/>
      <point x="647" y="772"/>
    </contour>
    <contour>
      <point x="622" y="131" type="curve"/>
      <point x="622" y="638" type="line"/>
      <point x="641" y="639"/>
      <point x="753" y="642"/>
      <point x="778" y="642" type="curve" smooth="yes"/>
      <point x="950" y="642"/>
      <point x="1027" y="561"/>
      <point x="1027" y="386" type="curve" smooth="yes"/>
      <point x="1027" y="254"/>
      <point x="970" y="119"/>
      <point x="757" y="119" type="curve" smooth="yes"/>
      <point x="700" y="119"/>
      <point x="658" y="123"/>
    </contour>
  </outline>
</glyph>
<glyph name="sha-cy.sc" format="1">
  <advance width="2495"/>
  <outline>
    <contour>
      <point x="787" y="-144" type="move" name="mark0"/>
    </contour>
    <contour>
      <point x="73" y="1292" type="line"/>
      <point x="73" y="1158" type="line"/>
      <point x="231" y="1134" type="line"/>
      <point x="231" y="147" type="line"/>
      <point x="64" y="126" type="line"/>
      <point x="64" y="0" type="line"/>
      <point x="2431" y="0" type="line"/>
      <point x="2431" y="126" type="line"/>
      <point x="2265" y="145" type="line"/>
      <point x="2265" y="1134" type="line"/>
      <point x="2423" y="1158" type="line"/>
      <point x="2423" y="1292" type="line"/>
      <point x="1728" y="1292" type="line"/>
      <point x="1728" y="1158" type="line"/>
      <point x="1875" y="1133" type="line"/>
      <point x="1875" y="145" type="line"/>
      <point x="1446" y="145" type="line"/>
      <point x="1446" y="1134" type="line"/>
      <point x="1598" y="1158" type="line"/>
      <point x="1598" y="1292" type="line"/>
      <point x="906" y="1292" type="line"/>
      <point x="906" y="1158" type="line"/>
      <point x="1057" y="1134" type="line"/>
      <point x="1057" y="145" type="line"/>
      <point x="622" y="145" type="line"/>
      <point x="622" y="1134" type="line"/>
      <point x="775" y="1158" type="line"/>
      <point x="775" y="1292" type="line"/>
    </contour>
  </outline>
</glyph>
<glyph name="shcha-cy.sc" format="1">
  <advance width="2551"/>
  <outline>
    <contour>
      <point x="2514" y="147" type="curve"/>
      <point x="2265" y="147" type="line"/>
      <point x="2265" y="1134" type="line"/>
      <point x="2423" y="1158" type="line"/>
      <point x="2423" y="1292" type="line"/>
      <point x="1728" y="1292" type="line"/>
      <point x="1728" y="1158" type="line"/>
      <point x="1875" y="1133" type="line"/>
      <point x="1875" y="145" type="line"/>
      <point x="1446" y="145" type="line"/>
      <point x="1446" y="1134" type="line"/>
      <point x="1598" y="1158" type="line"/>
      <point x="1598" y="1292" type="line"/>
      <point x="906" y="1292" type="line"/>
      <point x="906" y="1158" type="line"/>
      <point x="1057" y="1134" type="line"/>
      <point x="1057" y="145" type="line"/>
      <point x="622" y="145" type="line"/>
      <point x="622" y="1134" type="line"/>
      <point x="775" y="1158" type="line"/>
      <point x="775" y="1292" type="line"/>
      <point x="73" y="1292" type="line"/>
      <point x="73" y="1158" type="line"/>
      <point x="231" y="1134" type="line"/>
      <point x="231" y="147" type="line"/>
      <point x="64" y="126" type="line"/>
      <point x="64" y="0" type="line"/>
      <point x="2184" y="0" type="line"/>
      <point x="2214" y="-51"/>
      <point x="2255" y="-306"/>
      <point x="2256" y="-366" type="curve"/>
      <point x="2460" y="-366" type="line"/>
      <point x="2472" y="-326"/>
      <point x="2510" y="8"/>
    </contour>
  </outline>
</glyph>
<glyph name="shha-cy.sc" format="1">
  <advance width="1592"/>
  <outline>
    <contour>
      <point x="40" y="1124" type="move" name="topleft"/>
    </contour>
    <contour>
      <point x="794" y="476" type="move" name="center"/>
    </contour>
    <contour>
      <point x="824" y="-168" type="move" name="bottom"/>
    </contour>
    <contour>
      <point x="616" y="764" type="curve"/>
      <point x="616" y="1146" type="line"/>
      <point x="843" y="1166" type="line"/>
      <point x="843" y="1292" type="line"/>
      <point x="62" y="1292" type="line"/>
      <point x="62" y="1168" type="line"/>
      <point x="224" y="1146" type="line"/>
      <point x="224" y="160" type="line"/>
      <point x="64" y="134" type="line"/>
      <point x="64" y="0" type="line"/>
      <point x="776" y="0" type="line"/>
      <point x="776" y="134" type="line"/>
      <point x="616" y="158" type="line"/>
      <point x="616" y="612" type="line"/>
      <point x="658" y="642"/>
      <point x="750" y="662"/>
      <point x="839" y="662" type="curve" smooth="yes"/>
      <point x="1029" y="662"/>
      <point x="1057" y="602"/>
      <point x="1057" y="380" type="curve" smooth="yes"/>
      <point x="1057" y="158" type="line"/>
      <point x="918" y="134" type="line"/>
      <point x="918" y="0" type="line"/>
      <point x="1566" y="0" type="line"/>
      <point x="1566" y="134" type="line"/>
      <point x="1448" y="160" type="line"/>
      <point x="1448" y="448" type="line" smooth="yes"/>
      <point x="1448" y="724"/>
      <point x="1329" y="838"/>
      <point x="981" y="838" type="curve" smooth="yes"/>
      <point x="866" y="838"/>
      <point x="714" y="816"/>
    </contour>
  </outline>
</glyph>
<glyph name="shhadescender-cy.sc" format="1">
  <advance width="1733"/>
  <outline>
    <contour>
      <point x="59" y="1292" type="move" name="topleft"/>
    </contour>
    <contour>
      <point x="813" y="646" type="move" name="center"/>
    </contour>
    <contour>
      <point x="843" y="0" type="move" name="bottom"/>
    </contour>
    <contour>
      <point x="82" y="0" type="line"/>
      <point x="794" y="0" type="line"/>
      <point x="794" y="135" type="line"/>
      <point x="634" y="160" type="line"/>
      <point x="634" y="611" type="line"/>
      <point x="678" y="642"/>
      <point x="765" y="664"/>
      <point x="857" y="664" type="curve" smooth="yes"/>
      <point x="1047" y="664"/>
      <point x="1075" y="603"/>
      <point x="1075" y="381" type="curve" smooth="yes"/>
      <point x="1075" y="159" type="line"/>
      <point x="937" y="136" type="line"/>
      <point x="937" y="0" type="line"/>
      <point x="1367" y="0" type="line"/>
      <point x="1396" y="-53"/>
      <point x="1434" y="-313"/>
      <point x="1437" y="-366" type="curve"/>
      <point x="1642" y="-366" type="line"/>
      <point x="1652" y="-334"/>
      <point x="1695" y="14"/>
      <point x="1695" y="147" type="curve"/>
      <point x="1469" y="162" type="line"/>
      <point x="1469" y="448" type="line"/>
      <point x="1469" y="734"/>
      <point x="1339" y="838"/>
      <point x="999" y="838" type="curve" smooth="yes"/>
      <point x="876" y="838"/>
      <point x="730" y="815"/>
      <point x="634" y="766" type="curve"/>
      <point x="634" y="1146" type="line"/>
      <point x="861" y="1166" type="line"/>
      <point x="861" y="1292" type="line"/>
      <point x="82" y="1292" type="line"/>
      <point x="82" y="1168" type="line"/>
      <point x="244" y="1146" type="line"/>
      <point x="244" y="161" type="line"/>
      <point x="82" y="135" type="line"/>
    </contour>
  </outline>
</glyph>
<glyph name="softsign-cy.sc" format="1">
  <advance width="1472"/>
  <outline>
    <contour>
      <point x="622" y="771" type="curve"/>
      <point x="622" y="1134" type="line"/>
      <point x="847" y="1162" type="line"/>
      <point x="847" y="1292" type="line"/>
      <point x="75" y="1292" type="line"/>
      <point x="75" y="1162" type="line"/>
      <point x="230" y="1136" type="line"/>
      <point x="230" y="145" type="line"/>
      <point x="72" y="126" type="line"/>
      <point x="72" y="0" type="line"/>
      <point x="393" y="0" type="line"/>
      <point x="580" y="0"/>
      <point x="716" y="-14"/>
      <point x="862" y="-14" type="curve" smooth="yes"/>
      <point x="1176" y="-14"/>
      <point x="1432" y="143"/>
      <point x="1432" y="402" type="curve" smooth="yes"/>
      <point x="1432" y="632"/>
      <point x="1260" y="777"/>
      <point x="894" y="777" type="curve" smooth="yes"/>
      <point x="849" y="777"/>
      <point x="647" y="772"/>
    </contour>
    <contour>
      <point x="622" y="131" type="curve"/>
      <point x="622" y="638" type="line"/>
      <point x="639" y="639"/>
      <point x="751" y="642"/>
      <point x="777" y="642" type="curve" smooth="yes"/>
      <point x="950" y="642"/>
      <point x="1027" y="561"/>
      <point x="1027" y="386" type="curve" smooth="yes"/>
      <point x="1027" y="253"/>
      <point x="967" y="119"/>
      <point x="756" y="119" type="curve" smooth="yes"/>
      <point x="700" y="119"/>
      <point x="657" y="123"/>
    </contour>
  </outline>
</glyph>
<glyph name="tedescender-cy.sc" format="1">
  <advance width="1597"/>
  <outline>
    <contour>
      <point x="1355" y="147" type="curve"/>
      <point x="1007" y="147" type="line"/>
      <point x="1007" y="1150" type="line"/>
      <point x="1238" y="1140" type="line"/>
      <point x="1334" y="742" type="line"/>
      <point x="1536" y="742" type="line"/>
      <point x="1508" y="1292" type="line"/>
      <point x="98" y="1292" type="line"/>
      <point x="64" y="742" type="line"/>
      <point x="276" y="742" type="line"/>
      <point x="373" y="1140" type="line"/>
      <point x="610" y="1150" type="line"/>
      <point x="610" y="147" type="line"/>
      <point x="344" y="126" type="line"/>
      <point x="344" y="0" type="line"/>
      <point x="1060" y="0" type="line"/>
      <point x="1077" y="-76"/>
      <point x="1094" y="-307"/>
      <point x="1095" y="-366" type="curve"/>
      <point x="1299" y="-366" type="line"/>
      <point x="1311" y="-328"/>
      <point x="1351" y="1"/>
    </contour>
  </outline>
</glyph>
<glyph name="tetse-cy.sc" format="1">
  <advance width="2372"/>
  <outline>
    <contour>
      <point x="2367" y="147" type="curve"/>
      <point x="2115" y="147" type="line"/>
      <point x="2115" y="1133" type="line"/>
      <point x="2271" y="1158" type="line"/>
      <point x="2271" y="1292" type="line"/>
      <point x="1574" y="1292" type="line"/>
      <point x="1574" y="1158" type="line"/>
      <point x="1727" y="1133" type="line"/>
      <point x="1727" y="133" type="line"/>
      <point x="944" y="133" type="line"/>
      <point x="944" y="1152" type="line"/>
      <point x="1159" y="1133" type="line"/>
      <point x="1243" y="785" type="line"/>
      <point x="1434" y="785" type="line"/>
      <point x="1397" y="1292" type="line"/>
      <point x="77" y="1292" type="line"/>
      <point x="53" y="784" type="line"/>
      <point x="244" y="784" type="line"/>
      <point x="315" y="1133" type="line"/>
      <point x="551" y="1155" type="line"/>
      <point x="551" y="145" type="line"/>
      <point x="324" y="126" type="line"/>
      <point x="324" y="0" type="line"/>
      <point x="2033" y="0" type="line"/>
      <point x="2059" y="-51"/>
      <point x="2108" y="-304"/>
      <point x="2108" y="-364" type="curve"/>
      <point x="2315" y="-364" type="line"/>
      <point x="2325" y="-329"/>
      <point x="2363" y="6"/>
    </contour>
  </outline>
</glyph>
<glyph name="tse-cy.sc" format="1">
  <advance width="1778"/>
  <outline>
    <contour>
      <point x="1740" y="147" type="curve"/>
      <point x="1506" y="147" type="line"/>
      <point x="1506" y="1134" type="line"/>
      <point x="1663" y="1158" type="line"/>
      <point x="1663" y="1292" type="line"/>
      <point x="963" y="1292" type="line"/>
      <point x="963" y="1158" type="line"/>
      <point x="1115" y="1134" type="line"/>
      <point x="1115" y="133" type="line"/>
      <point x="622" y="133" type="line"/>
      <point x="622" y="1133" type="line"/>
      <point x="802" y="1158" type="line"/>
      <point x="802" y="1292" type="line"/>
      <point x="73" y="1292" type="line"/>
      <point x="73" y="1158" type="line"/>
      <point x="231" y="1134" type="line"/>
      <point x="231" y="147" type="line"/>
      <point x="64" y="127" type="line"/>
      <point x="64" y="0" type="line"/>
      <point x="1412" y="0" type="line"/>
      <point x="1441" y="-54"/>
      <point x="1480" y="-303"/>
      <point x="1482" y="-366" type="curve"/>
      <point x="1688" y="-366" type="line"/>
      <point x="1697" y="-335"/>
      <point x="1740" y="14"/>
    </contour>
  </outline>
</glyph>
<glyph name="tshe-cy.sc" format="1">
  <advance width="2015"/>
  <outline>
    <contour>
      <point x="811" y="-144" type="move" name="mark0"/>
    </contour>
    <contour>
      <point x="991" y="666" type="curve"/>
      <point x="991" y="1154" type="line"/>
      <point x="1281" y="1131" type="line"/>
      <point x="1368" y="871" type="line"/>
      <point x="1564" y="871" type="line"/>
      <point x="1531" y="1292" type="line"/>
      <point x="73" y="1292" type="line"/>
      <point x="44" y="871" type="line"/>
      <point x="251" y="871" type="line"/>
      <point x="317" y="1134" type="line"/>
      <point x="598" y="1156" type="line"/>
      <point x="598" y="147" type="line"/>
      <point x="335" y="126" type="line"/>
      <point x="335" y="0" type="line"/>
      <point x="1169" y="0" type="line"/>
      <point x="1169" y="126" type="line"/>
      <point x="991" y="147" type="line"/>
      <point x="991" y="520" type="line"/>
      <point x="1042" y="544"/>
      <point x="1125" y="579"/>
      <point x="1251" y="579" type="curve" smooth="yes"/>
      <point x="1439" y="579"/>
      <point x="1458" y="499"/>
      <point x="1458" y="297" type="curve" smooth="yes"/>
      <point x="1458" y="145" type="line"/>
      <point x="1327" y="126" type="line"/>
      <point x="1327" y="0" type="line"/>
      <point x="1996" y="0" type="line"/>
      <point x="1996" y="126" type="line"/>
      <point x="1848" y="145" type="line"/>
      <point x="1848" y="364" type="line" smooth="yes"/>
      <point x="1848" y="637"/>
      <point x="1747" y="751"/>
      <point x="1364" y="751" type="curve" smooth="yes"/>
      <point x="1229" y="751"/>
      <point x="1094" y="716"/>
    </contour>
  </outline>
</glyph>
<glyph name="udieresis-cy.sc" format="1">
  <advance width="1482"/>
  <outline>
    <contour>
      <point x="1017" y="1461" type="curve"/>
      <point x="1168" y="1461"/>
      <point x="1213" y="1543"/>
      <point x="1213" y="1648" type="curve" smooth="yes"/>
      <point x="1213" y="1731"/>
      <point x="1164" y="1806"/>
      <point x="1039" y="1806" type="curve" smooth="yes"/>
      <point x="906" y="1806"/>
      <point x="849" y="1723"/>
      <point x="849" y="1619" type="curve" smooth="yes"/>
      <point x="849" y="1543"/>
      <point x="904" y="1461"/>
    </contour>
    <contour>
      <point x="466" y="1461" type="curve" smooth="yes"/>
      <point x="616" y="1461"/>
      <point x="662" y="1543"/>
      <point x="662" y="1648" type="curve" smooth="yes"/>
      <point x="662" y="1731"/>
      <point x="613" y="1806"/>
      <point x="488" y="1806" type="curve"/>
      <point x="355" y="1806"/>
      <point x="299" y="1723"/>
      <point x="299" y="1619" type="curve" smooth="yes"/>
      <point x="299" y="1534"/>
      <point x="355" y="1461"/>
    </contour>
    <contour>
      <point x="956" y="280" type="curve"/>
      <point x="1350" y="1132" type="line"/>
      <point x="1460" y="1158" type="line"/>
      <point x="1460" y="1292" type="line"/>
      <point x="973" y="1292" type="line"/>
      <point x="973" y="1158" type="line"/>
      <point x="1121" y="1134" type="line"/>
      <point x="916" y="638" type="line"/>
      <point x="862" y="504" type="line"/>
      <point x="806" y="636" type="line"/>
      <point x="566" y="1132" type="line"/>
      <point x="744" y="1158" type="line"/>
      <point x="744" y="1292" type="line"/>
      <point x="22" y="1292" type="line"/>
      <point x="22" y="1158" type="line"/>
      <point x="136" y="1134" type="line"/>
      <point x="611" y="266" type="line"/>
      <point x="596" y="198"/>
      <point x="555" y="180"/>
      <point x="418" y="180" type="curve" smooth="yes"/>
      <point x="370" y="180"/>
      <point x="305" y="180"/>
      <point x="261" y="180" type="curve"/>
      <point x="261" y="12" type="line"/>
      <point x="312" y="-4"/>
      <point x="428" y="-20"/>
      <point x="527" y="-20" type="curve" smooth="yes"/>
      <point x="792" y="-20"/>
      <point x="880" y="136"/>
    </contour>
  </outline>
</glyph>
<glyph name="uhungarumlaut-cy.sc" format="1">
  <advance width="1482"/>
  <outline>
    <contour>
      <point x="472" y="1445" type="line"/>
      <point x="568" y="1497"/>
      <point x="830" y="1710"/>
      <point x="904" y="1815" type="curve"/>
      <point x="705" y="1956" type="line"/>
      <point x="342" y="1533" type="line"/>
    </contour>
    <contour>
      <point x="969" y="1445" type="line"/>
      <point x="1071" y="1497"/>
      <point x="1351" y="1723"/>
      <point x="1409" y="1818" type="curve"/>
      <point x="1221" y="1956" type="line"/>
      <point x="842" y="1534" type="line"/>
    </contour>
    <contour>
      <point x="956" y="280" type="curve"/>
      <point x="1350" y="1132" type="line"/>
      <point x="1460" y="1158" type="line"/>
      <point x="1460" y="1292" type="line"/>
      <point x="973" y="1292" type="line"/>
      <point x="973" y="1158" type="line"/>
      <point x="1121" y="1134" type="line"/>
      <point x="916" y="638" type="line"/>
      <point x="862" y="504" type="line"/>
      <point x="806" y="636" type="line"/>
      <point x="566" y="1132" type="line"/>
      <point x="744" y="1158" type="line"/>
      <point x="744" y="1292" type="line"/>
      <point x="22" y="1292" type="line"/>
      <point x="22" y="1158" type="line"/>
      <point x="136" y="1134" type="line"/>
      <point x="611" y="266" type="line"/>
      <point x="596" y="198"/>
      <point x="555" y="180"/>
      <point x="418" y="180" type="curve" smooth="yes"/>
      <point x="370" y="180"/>
      <point x="305" y="180"/>
      <point x="261" y="180" type="curve"/>
      <point x="261" y="12" type="line"/>
      <point x="312" y="-4"/>
      <point x="428" y="-20"/>
      <point x="527" y="-20" type="curve" smooth="yes"/>
      <point x="792" y="-20"/>
      <point x="880" y="136"/>
    </contour>
  </outline>
</glyph>
<glyph name="umacron-cy.sc" format="1">
  <advance width="1482"/>
  <outline>
    <contour>
      <point x="1100" y="1688" type="line"/>
      <point x="409" y="1688" type="line"/>
      <point x="409" y="1496" type="line"/>
      <point x="1100" y="1496" type="line"/>
    </contour>
    <contour>
      <point x="956" y="280" type="curve"/>
      <point x="1350" y="1132" type="line"/>
      <point x="1460" y="1158" type="line"/>
      <point x="1460" y="1292" type="line"/>
      <point x="973" y="1292" type="line"/>
      <point x="973" y="1158" type="line"/>
      <point x="1121" y="1134" type="line"/>
      <point x="916" y="638" type="line"/>
      <point x="862" y="504" type="line"/>
      <point x="806" y="636" type="line"/>
      <point x="566" y="1132" type="line"/>
      <point x="744" y="1158" type="line"/>
      <point x="744" y="1292" type="line"/>
      <point x="22" y="1292" type="line"/>
      <point x="22" y="1158" type="line"/>
      <point x="136" y="1134" type="line"/>
      <point x="611" y="266" type="line"/>
      <point x="596" y="198"/>
      <point x="555" y="180"/>
      <point x="418" y="180" type="curve" smooth="yes"/>
      <point x="370" y="180"/>
      <point x="305" y="180"/>
      <point x="261" y="180" type="curve"/>
      <point x="261" y="12" type="line"/>
      <point x="312" y="-4"/>
      <point x="428" y="-20"/>
      <point x="527" y="-20" type="curve" smooth="yes"/>
      <point x="792" y="-20"/>
      <point x="880" y="136"/>
    </contour>
  </outline>
</glyph>
<glyph name="ushort-cy.sc" format="1">
  <advance width="1482"/>
  <outline>
    <contour>
      <point x="553" y="1838" type="curve" smooth="yes"/>
      <point x="284" y="1838" type="line"/>
      <point x="284" y="1821"/>
      <point x="282" y="1805"/>
      <point x="282" y="1788" type="curve" smooth="yes"/>
      <point x="282" y="1592"/>
      <point x="468" y="1456"/>
      <point x="753" y="1456" type="curve" smooth="yes"/>
      <point x="1050" y="1456"/>
      <point x="1222" y="1591"/>
      <point x="1222" y="1788" type="curve" smooth="yes"/>
      <point x="1222" y="1799"/>
      <point x="1222" y="1827"/>
      <point x="1220" y="1838" type="curve"/>
      <point x="951" y="1838" type="line" smooth="yes"/>
      <point x="919" y="1838"/>
      <point x="913" y="1784"/>
      <point x="913" y="1749" type="curve" smooth="yes"/>
      <point x="913" y="1667"/>
      <point x="858" y="1582"/>
      <point x="755" y="1582" type="curve" smooth="yes"/>
      <point x="647" y="1582"/>
      <point x="590" y="1667"/>
      <point x="590" y="1749" type="curve" smooth="yes"/>
      <point x="590" y="1784"/>
      <point x="585" y="1838"/>
    </contour>
    <contour>
      <point x="956" y="280" type="curve"/>
      <point x="1350" y="1132" type="line"/>
      <point x="1460" y="1158" type="line"/>
      <point x="1460" y="1292" type="line"/>
      <point x="973" y="1292" type="line"/>
      <point x="973" y="1158" type="line"/>
      <point x="1121" y="1134" type="line"/>
      <point x="916" y="638" type="line"/>
      <point x="862" y="504" type="line"/>
      <point x="806" y="636" type="line"/>
      <point x="566" y="1132" type="line"/>
      <point x="744" y="1158" type="line"/>
      <point x="744" y="1292" type="line"/>
      <point x="22" y="1292" type="line"/>
      <point x="22" y="1158" type="line"/>
      <point x="136" y="1134" type="line"/>
      <point x="611" y="266" type="line"/>
      <point x="596" y="198"/>
      <point x="555" y="180"/>
      <point x="418" y="180" type="curve" smooth="yes"/>
      <point x="370" y="180"/>
      <point x="305" y="180"/>
      <point x="261" y="180" type="curve"/>
      <point x="261" y="12" type="line"/>
      <point x="312" y="-4"/>
      <point x="428" y="-20"/>
      <point x="527" y="-20" type="curve" smooth="yes"/>
      <point x="792" y="-20"/>
      <point x="880" y="136"/>
    </contour>
  </outline>
</glyph>
<glyph name="yat-cy.sc" format="1">
  <advance width="1756"/>
  <outline>
    <contour>
      <point x="924" y="710" type="curve"/>
      <point x="924" y="997" type="line"/>
      <point x="1209" y="974" type="line"/>
      <point x="1269" y="859" type="line"/>
      <point x="1481" y="859" type="line"/>
      <point x="1445" y="1135" type="line"/>
      <point x="924" y="1135" type="line"/>
      <point x="924" y="1292" type="line"/>
      <point x="1108" y="1320" type="line"/>
      <point x="1108" y="1446" type="line"/>
      <point x="363" y="1446" type="line"/>
      <point x="363" y="1320" type="line"/>
      <point x="532" y="1295" type="line"/>
      <point x="532" y="1135" type="line"/>
      <point x="32" y="1135" type="line"/>
      <point x="2" y="859" type="line"/>
      <point x="180" y="859" type="line"/>
      <point x="244" y="974" type="line"/>
      <point x="532" y="997" type="line"/>
      <point x="532" y="145" type="line"/>
      <point x="324" y="126" type="line"/>
      <point x="324" y="0" type="line"/>
      <point x="754" y="0" type="line" smooth="yes"/>
      <point x="835" y="0"/>
      <point x="1089" y="-13"/>
      <point x="1131" y="-13" type="curve" smooth="yes"/>
      <point x="1496" y="-13"/>
      <point x="1716" y="128"/>
      <point x="1716" y="385" type="curve" smooth="yes"/>
      <point x="1716" y="583"/>
      <point x="1557" y="732"/>
      <point x="1193" y="732" type="curve" smooth="yes"/>
      <point x="1056" y="732"/>
      <point x="968" y="720"/>
    </contour>
    <contour>
      <point x="924" y="123" type="curve"/>
      <point x="924" y="588" type="line"/>
      <point x="956" y="596"/>
      <point x="1016" y="600"/>
      <point x="1075" y="600" type="curve" smooth="yes"/>
      <point x="1252" y="600"/>
      <point x="1325" y="494"/>
      <point x="1325" y="362" type="curve" smooth="yes"/>
      <point x="1325" y="224"/>
      <point x="1234" y="115"/>
      <point x="1026" y="115" type="curve" smooth="yes"/>
      <point x="977" y="115"/>
      <point x="952" y="114"/>
    </contour>
  </outline>
</glyph>
<glyph name="yeru-cy.sc" format="1">
  <advance width="2343"/>
  <outline>
    <contour>
      <point x="1172" y="1287" type="move" name="top"/>
    </contour>
    <contour>
      <point x="622" y="771" type="curve"/>
      <point x="622" y="1134" type="line"/>
      <point x="847" y="1162" type="line"/>
      <point x="847" y="1292" type="line"/>
      <point x="75" y="1292" type="line"/>
      <point x="75" y="1162" type="line"/>
      <point x="230" y="1136" type="line"/>
      <point x="230" y="145" type="line"/>
      <point x="72" y="126" type="line"/>
      <point x="72" y="0" type="line"/>
      <point x="393" y="0" type="line" smooth="yes"/>
      <point x="580" y="0"/>
      <point x="716" y="-14"/>
      <point x="862" y="-14" type="curve" smooth="yes"/>
      <point x="1176" y="-14"/>
      <point x="1432" y="143"/>
      <point x="1432" y="402" type="curve" smooth="yes"/>
      <point x="1432" y="632"/>
      <point x="1260" y="777"/>
      <point x="894" y="777" type="curve" smooth="yes"/>
      <point x="849" y="777"/>
      <point x="647" y="772"/>
    </contour>
    <contour>
      <point x="622" y="131" type="curve"/>
      <point x="622" y="638" type="line"/>
      <point x="639" y="639"/>
      <point x="751" y="642"/>
      <point x="777" y="642" type="curve" smooth="yes"/>
      <point x="950" y="642"/>
      <point x="1027" y="561"/>
      <point x="1027" y="386" type="curve" smooth="yes"/>
      <point x="1027" y="253"/>
      <point x="967" y="119"/>
      <point x="756" y="119" type="curve" smooth="yes"/>
      <point x="700" y="119"/>
      <point x="657" y="123"/>
    </contour>
    <contour>
      <point x="1530" y="1292" type="line"/>
      <point x="1530" y="1158" type="line"/>
      <point x="1696" y="1133" type="line"/>
      <point x="1696" y="147" type="line"/>
      <point x="1533" y="126" type="line"/>
      <point x="1533" y="0" type="line"/>
      <point x="2263" y="0" type="line"/>
      <point x="2263" y="124" type="line"/>
      <point x="2092" y="145" type="line"/>
      <point x="2092" y="1133" type="line"/>
      <point x="2263" y="1158" type="line"/>
      <point x="2263" y="1292" type="line"/>
    </contour>
  </outline>
</glyph>
<glyph name="yerudieresis-cy.sc" format="1">
  <advance width="2343"/>
  <outline>
    <contour>
      <point x="1436" y="1462" type="curve"/>
      <point x="1586" y="1462"/>
      <point x="1631" y="1544"/>
      <point x="1631" y="1649" type="curve" smooth="yes"/>
      <point x="1631" y="1732"/>
      <point x="1582" y="1807"/>
      <point x="1458" y="1807" type="curve" smooth="yes"/>
      <point x="1325" y="1807"/>
      <point x="1268" y="1724"/>
      <point x="1268" y="1620" type="curve" smooth="yes"/>
      <point x="1268" y="1544"/>
      <point x="1322" y="1462"/>
    </contour>
    <contour>
      <point x="885" y="1462" type="curve" smooth="yes"/>
      <point x="1034" y="1462"/>
      <point x="1080" y="1544"/>
      <point x="1080" y="1649" type="curve" smooth="yes"/>
      <point x="1080" y="1732"/>
      <point x="1032" y="1807"/>
      <point x="906" y="1807" type="curve"/>
      <point x="773" y="1807"/>
      <point x="717" y="1724"/>
      <point x="717" y="1620" type="curve" smooth="yes"/>
      <point x="717" y="1535"/>
      <point x="773" y="1462"/>
    </contour>
    <contour>
      <point x="622" y="771" type="curve"/>
      <point x="622" y="1134" type="line"/>
      <point x="847" y="1162" type="line"/>
      <point x="847" y="1292" type="line"/>
      <point x="75" y="1292" type="line"/>
      <point x="75" y="1162" type="line"/>
      <point x="230" y="1136" type="line"/>
      <point x="230" y="145" type="line"/>
      <point x="72" y="126" type="line"/>
      <point x="72" y="0" type="line"/>
      <point x="393" y="0" type="line" smooth="yes"/>
      <point x="580" y="0"/>
      <point x="716" y="-14"/>
      <point x="862" y="-14" type="curve" smooth="yes"/>
      <point x="1176" y="-14"/>
      <point x="1432" y="143"/>
      <point x="1432" y="402" type="curve" smooth="yes"/>
      <point x="1432" y="632"/>
      <point x="1260" y="777"/>
      <point x="894" y="777" type="curve" smooth="yes"/>
      <point x="849" y="777"/>
      <point x="647" y="772"/>
    </contour>
    <contour>
      <point x="622" y="131" type="curve"/>
      <point x="622" y="638" type="line"/>
      <point x="639" y="639"/>
      <point x="751" y="642"/>
      <point x="777" y="642" type="curve" smooth="yes"/>
      <point x="950" y="642"/>
      <point x="1027" y="561"/>
      <point x="1027" y="386" type="curve" smooth="yes"/>
      <point x="1027" y="253"/>
      <point x="967" y="119"/>
      <point x="756" y="119" type="curve" smooth="yes"/>
      <point x="700" y="119"/>
      <point x="657" y="123"/>
    </contour>
    <contour>
      <point x="1530" y="1292" type="line"/>
      <point x="1530" y="1158" type="line"/>
      <point x="1696" y="1133" type="line"/>
      <point x="1696" y="147" type="line"/>
      <point x="1533" y="126" type="line"/>
      <point x="1533" y="0" type="line"/>
      <point x="2263" y="0" type="line"/>
      <point x="2263" y="124" type="line"/>
      <point x="2092" y="145" type="line"/>
      <point x="2092" y="1133" type="line"/>
      <point x="2263" y="1158" type="line"/>
      <point x="2263" y="1292" type="line"/>
    </contour>
  </outline>
</glyph>
<glyph name="zedescender-cy.sc" format="1">
  <advance width="1350"/>
  <outline>
    <contour>
      <point x="117" y="1256" type="curve"/>
      <point x="152" y="954" type="line"/>
      <point x="366" y="954" type="line"/>
      <point x="413" y="1133" type="line"/>
      <point x="428" y="1157"/>
      <point x="483" y="1183"/>
      <point x="590" y="1183" type="curve" smooth="yes"/>
      <point x="722" y="1183"/>
      <point x="823" y="1130"/>
      <point x="824" y="998" type="curve" smooth="yes"/>
      <point x="824" y="812"/>
      <point x="700" y="747"/>
      <point x="557" y="747" type="curve" smooth="yes"/>
      <point x="446" y="747" type="line"/>
      <point x="446" y="604" type="line"/>
      <point x="576" y="604" type="line" smooth="yes"/>
      <point x="781" y="604"/>
      <point x="831" y="483"/>
      <point x="831" y="377" type="curve" smooth="yes"/>
      <point x="831" y="217"/>
      <point x="765" y="109"/>
      <point x="616" y="109" type="curve" smooth="yes"/>
      <point x="514" y="109"/>
      <point x="449" y="134"/>
      <point x="416" y="160" type="curve"/>
      <point x="344" y="412" type="line"/>
      <point x="153" y="412" type="line"/>
      <point x="101" y="63" type="line"/>
      <point x="204" y="56"/>
      <point x="338" y="-10"/>
      <point x="593" y="-10" type="curve" smooth="yes"/>
      <point x="1120" y="-10"/>
      <point x="1278" y="150"/>
      <point x="1278" y="393" type="curve" smooth="yes"/>
      <point x="1278" y="561"/>
      <point x="1132" y="673"/>
      <point x="863" y="682" type="curve"/>
      <point x="1051" y="712"/>
      <point x="1236" y="811"/>
      <point x="1236" y="1010" type="curve" smooth="yes"/>
      <point x="1236" y="1210"/>
      <point x="1013" y="1306"/>
      <point x="626" y="1306" type="curve" smooth="yes"/>
      <point x="468" y="1306"/>
      <point x="205" y="1260"/>
    </contour>
  </outline>
</glyph>
<glyph name="zhe-cy.sc" format="1">
  <advance width="2275"/>
  <outline>
    <contour>
      <point x="1137" y="1287" type="move" name="top"/>
    </contour>
    <contour>
      <point x="2229" y="0" type="move" name="bottomright"/>
    </contour>
    <contour>
      <point x="1677" y="705" type="curve"/>
      <point x="2056" y="1133" type="line"/>
      <point x="2239" y="1158" type="line"/>
      <point x="2239" y="1292" type="line"/>
      <point x="1647" y="1292" type="line"/>
      <point x="1647" y="1158" type="line"/>
      <point x="1784" y="1134" type="line"/>
      <point x="1460" y="711" type="line"/>
      <point x="1327" y="711" type="line"/>
      <point x="1327" y="1134" type="line"/>
      <point x="1498" y="1158" type="line"/>
      <point x="1498" y="1292" type="line"/>
      <point x="781" y="1292" type="line"/>
      <point x="781" y="1158" type="line"/>
      <point x="951" y="1134" type="line"/>
      <point x="951" y="711" type="line"/>
      <point x="815" y="711" type="line"/>
      <point x="490" y="1134" type="line"/>
      <point x="629" y="1158" type="line"/>
      <point x="629" y="1292" type="line"/>
      <point x="42" y="1292" type="line"/>
      <point x="42" y="1158" type="line"/>
      <point x="218" y="1133" type="line"/>
      <point x="597" y="705" type="line"/>
      <point x="291" y="640"/>
      <point x="182" y="178"/>
      <point x="74" y="147" type="curve" smooth="yes"/>
      <point x="2" y="126" type="line"/>
      <point x="2" y="0" type="line"/>
      <point x="394" y="0" type="line" smooth="yes"/>
      <point x="571" y="0"/>
      <point x="662" y="599"/>
      <point x="893" y="599" type="curve" smooth="yes"/>
      <point x="951" y="599" type="line"/>
      <point x="951" y="147" type="line"/>
      <point x="769" y="126" type="line"/>
      <point x="769" y="0" type="line"/>
      <point x="1515" y="0" type="line"/>
      <point x="1515" y="124" type="line"/>
      <point x="1327" y="147" type="line"/>
      <point x="1327" y="599" type="line"/>
      <point x="1383" y="599" type="line" smooth="yes"/>
      <point x="1615" y="599"/>
      <point x="1694" y="0"/>
      <point x="1867" y="0" type="curve"/>
      <point x="2276" y="0" type="line"/>
      <point x="2276" y="126" type="line"/>
      <point x="2197" y="147" type="line" smooth="yes"/>
      <point x="2090" y="178"/>
      <point x="1984" y="640"/>
    </contour>
  </outline>
</glyph>
<glyph name="zhebreve-cy.sc" format="1">
  <advance width="2275"/>
  <outline>
    <contour>
      <point x="936" y="1839" type="curve" smooth="yes"/>
      <point x="667" y="1839" type="line"/>
      <point x="667" y="1822"/>
      <point x="665" y="1806"/>
      <point x="665" y="1789" type="curve" smooth="yes"/>
      <point x="665" y="1593"/>
      <point x="851" y="1457"/>
      <point x="1136" y="1457" type="curve" smooth="yes"/>
      <point x="1433" y="1457"/>
      <point x="1605" y="1592"/>
      <point x="1605" y="1789" type="curve" smooth="yes"/>
      <point x="1605" y="1800"/>
      <point x="1605" y="1828"/>
      <point x="1603" y="1839" type="curve"/>
      <point x="1334" y="1839" type="line" smooth="yes"/>
      <point x="1302" y="1839"/>
      <point x="1296" y="1785"/>
      <point x="1296" y="1750" type="curve" smooth="yes"/>
      <point x="1296" y="1668"/>
      <point x="1241" y="1583"/>
      <point x="1138" y="1583" type="curve" smooth="yes"/>
      <point x="1030" y="1583"/>
      <point x="973" y="1668"/>
      <point x="973" y="1750" type="curve" smooth="yes"/>
      <point x="973" y="1785"/>
      <point x="969" y="1839"/>
    </contour>
    <contour>
      <point x="1677" y="705" type="curve"/>
      <point x="2056" y="1133" type="line"/>
      <point x="2239" y="1158" type="line"/>
      <point x="2239" y="1292" type="line"/>
      <point x="1647" y="1292" type="line"/>
      <point x="1647" y="1158" type="line"/>
      <point x="1784" y="1134" type="line"/>
      <point x="1460" y="711" type="line"/>
      <point x="1327" y="711" type="line"/>
      <point x="1327" y="1134" type="line"/>
      <point x="1498" y="1158" type="line"/>
      <point x="1498" y="1292" type="line"/>
      <point x="781" y="1292" type="line"/>
      <point x="781" y="1158" type="line"/>
      <point x="951" y="1134" type="line"/>
      <point x="951" y="711" type="line"/>
      <point x="815" y="711" type="line"/>
      <point x="490" y="1134" type="line"/>
      <point x="629" y="1158" type="line"/>
      <point x="629" y="1292" type="line"/>
      <point x="42" y="1292" type="line"/>
      <point x="42" y="1158" type="line"/>
      <point x="218" y="1133" type="line"/>
      <point x="597" y="705" type="line"/>
      <point x="291" y="640"/>
      <point x="182" y="178"/>
      <point x="74" y="147" type="curve" smooth="yes"/>
      <point x="2" y="126" type="line"/>
      <point x="2" y="0" type="line"/>
      <point x="394" y="0" type="line" smooth="yes"/>
      <point x="571" y="0"/>
      <point x="662" y="599"/>
      <point x="893" y="599" type="curve" smooth="yes"/>
      <point x="951" y="599" type="line"/>
      <point x="951" y="147" type="line"/>
      <point x="769" y="126" type="line"/>
      <point x="769" y="0" type="line"/>
      <point x="1515" y="0" type="line"/>
      <point x="1515" y="124" type="line"/>
      <point x="1327" y="147" type="line"/>
      <point x="1327" y="599" type="line"/>
      <point x="1383" y="599" type="line" smooth="yes"/>
      <point x="1615" y="599"/>
      <point x="1694" y="0"/>
      <point x="1867" y="0" type="curve"/>
      <point x="2276" y="0" type="line"/>
      <point x="2276" y="126" type="line"/>
      <point x="2197" y="147" type="line" smooth="yes"/>
      <point x="2090" y="178"/>
      <point x="1984" y="640"/>
    </contour>
  </outline>
</glyph>
<glyph name="zhedescender-cy.sc" format="1">
  <advance width="2321"/>
  <outline>
    <contour>
      <point x="1678" y="704" type="curve"/>
      <point x="2056" y="1133" type="line"/>
      <point x="2239" y="1158" type="line"/>
      <point x="2239" y="1292" type="line"/>
      <point x="1647" y="1292" type="line"/>
      <point x="1647" y="1158" type="line"/>
      <point x="1784" y="1134" type="line"/>
      <point x="1460" y="711" type="line"/>
      <point x="1327" y="711" type="line"/>
      <point x="1327" y="1134" type="line"/>
      <point x="1498" y="1158" type="line"/>
      <point x="1498" y="1292" type="line"/>
      <point x="781" y="1292" type="line"/>
      <point x="781" y="1158" type="line"/>
      <point x="951" y="1134" type="line"/>
      <point x="951" y="711" type="line"/>
      <point x="815" y="711" type="line"/>
      <point x="490" y="1134" type="line"/>
      <point x="629" y="1158" type="line"/>
      <point x="629" y="1292" type="line"/>
      <point x="42" y="1292" type="line"/>
      <point x="42" y="1158" type="line"/>
      <point x="218" y="1133" type="line"/>
      <point x="597" y="705" type="line"/>
      <point x="291" y="640"/>
      <point x="192" y="179"/>
      <point x="88" y="147" type="curve" smooth="yes"/>
      <point x="2" y="126" type="line"/>
      <point x="2" y="0" type="line"/>
      <point x="407" y="0" type="line" smooth="yes"/>
      <point x="585" y="0"/>
      <point x="662" y="599"/>
      <point x="893" y="599" type="curve" smooth="yes"/>
      <point x="951" y="599" type="line"/>
      <point x="951" y="147" type="line"/>
      <point x="769" y="126" type="line"/>
      <point x="769" y="0" type="line"/>
      <point x="1515" y="0" type="line"/>
      <point x="1515" y="124" type="line"/>
      <point x="1327" y="147" type="line"/>
      <point x="1327" y="599" type="line"/>
      <point x="1383" y="599" type="line" smooth="yes"/>
      <point x="1615" y="599"/>
      <point x="1692" y="0"/>
      <point x="1867" y="0" type="curve" smooth="yes"/>
      <point x="1995" y="0" type="line"/>
      <point x="2027" y="-52"/>
      <point x="2065" y="-303"/>
      <point x="2065" y="-366" type="curve"/>
      <point x="2271" y="-366" type="line"/>
      <point x="2280" y="-332"/>
      <point x="2323" y="14"/>
      <point x="2323" y="147" type="curve"/>
      <point x="2186" y="147" type="line"/>
      <point x="2083" y="179"/>
      <point x="1985" y="639"/>
    </contour>
  </outline>
</glyph>
<glyph name="zhedieresis-cy.sc" format="1">
  <advance width="2275"/>
  <outline>
    <contour>
      <point x="1400" y="1462" type="curve"/>
      <point x="1551" y="1462"/>
      <point x="1596" y="1544"/>
      <point x="1596" y="1649" type="curve" smooth="yes"/>
      <point x="1596" y="1732"/>
      <point x="1547" y="1807"/>
      <point x="1423" y="1807" type="curve" smooth="yes"/>
      <point x="1289" y="1807"/>
      <point x="1232" y="1724"/>
      <point x="1232" y="1620" type="curve" smooth="yes"/>
      <point x="1232" y="1544"/>
      <point x="1287" y="1462"/>
    </contour>
    <contour>
      <point x="850" y="1462" type="curve" smooth="yes"/>
      <point x="999" y="1462"/>
      <point x="1045" y="1544"/>
      <point x="1045" y="1649" type="curve" smooth="yes"/>
      <point x="1045" y="1732"/>
      <point x="996" y="1807"/>
      <point x="871" y="1807" type="curve"/>
      <point x="738" y="1807"/>
      <point x="682" y="1724"/>
      <point x="682" y="1620" type="curve" smooth="yes"/>
      <point x="682" y="1535"/>
      <point x="738" y="1462"/>
    </contour>
    <contour>
      <point x="1677" y="705" type="curve"/>
      <point x="2056" y="1133" type="line"/>
      <point x="2239" y="1158" type="line"/>
      <point x="2239" y="1292" type="line"/>
      <point x="1647" y="1292" type="line"/>
      <point x="1647" y="1158" type="line"/>
      <point x="1784" y="1134" type="line"/>
      <point x="1460" y="711" type="line"/>
      <point x="1327" y="711" type="line"/>
      <point x="1327" y="1134" type="line"/>
      <point x="1498" y="1158" type="line"/>
      <point x="1498" y="1292" type="line"/>
      <point x="781" y="1292" type="line"/>
      <point x="781" y="1158" type="line"/>
      <point x="951" y="1134" type="line"/>
      <point x="951" y="711" type="line"/>
      <point x="815" y="711" type="line"/>
      <point x="490" y="1134" type="line"/>
      <point x="629" y="1158" type="line"/>
      <point x="629" y="1292" type="line"/>
      <point x="42" y="1292" type="line"/>
      <point x="42" y="1158" type="line"/>
      <point x="218" y="1133" type="line"/>
      <point x="597" y="705" type="line"/>
      <point x="291" y="640"/>
      <point x="182" y="178"/>
      <point x="74" y="147" type="curve" smooth="yes"/>
      <point x="2" y="126" type="line"/>
      <point x="2" y="0" type="line"/>
      <point x="394" y="0" type="line" smooth="yes"/>
      <point x="571" y="0"/>
      <point x="662" y="599"/>
      <point x="893" y="599" type="curve" smooth="yes"/>
      <point x="951" y="599" type="line"/>
      <point x="951" y="147" type="line"/>
      <point x="769" y="126" type="line"/>
      <point x="769" y="0" type="line"/>
      <point x="1515" y="0" type="line"/>
      <point x="1515" y="124" type="line"/>
      <point x="1327" y="147" type="line"/>
      <point x="1327" y="599" type="line"/>
      <point x="1383" y="599" type="line" smooth="yes"/>
      <point x="1615" y="599"/>
      <point x="1694" y="0"/>
      <point x="1867" y="0" type="curve"/>
      <point x="2276" y="0" type="line"/>
      <point x="2276" y="126" type="line"/>
      <point x="2197" y="147" type="line" smooth="yes"/>
      <point x="2090" y="178"/>
      <point x="1984" y="640"/>
    </contour>
  </outline>
</glyph>
